KodeMono-Bold.ufo
<glyph name="exclam" format="2">
  <advance width="1200"/>
  <unicode hex="0021"/>
  <outline>
    <contour>
      <point x="743" y="221" type="line"/>
      <point x="743" y="-42" type="line"/>
      <point x="457" y="-42" type="line"/>
      <point x="457" y="221" type="line"/>
    </contour>
    <contour>
      <point x="480" y="385" type="line" name=".hr01"/>
      <point x="480" y="1433" type="line"/>
      <point x="724" y="1433" type="line"/>
      <point x="724" y="385" type="line"/>
    </contour>
  </outline>
</glyph>
<glyph name="quotedbl" format="2">
  <advance width="1200"/>
  <unicode hex="0022"/>
  <outline>
    <contour>
      <point x="260" y="880" type="line"/>
      <point x="260" y="1490" type="line"/>
      <point x="500" y="1490" type="line"/>
      <point x="500" y="880" type="line"/>
    </contour>
    <contour>
      <point x="700" y="880" type="line"/>
      <point x="700" y="1490" type="line"/>
      <point x="940" y="1490" type="line"/>
      <point x="940" y="880" type="line"/>
    </contour>
  </outline>
</glyph>
<glyph name="numbersign" format="2">
  <advance width="1200"/>
  <unicode hex="0023"/>
  <outline>
    <contour>
      <point x="453" y="560" type="line"/>
      <point x="668" y="560" type="line"/>
      <point x="731" y="913" type="line"/>
      <point x="519" y="913" type="line"/>
    </contour>
    <contour>
      <point x="1155" y="1138" type="line"/>
      <point x="1155" y="913" type="line"/>
      <point x="961" y="913" type="line"/>
      <point x="895" y="560" type="line"/>
      <point x="1049" y="560" type="line"/>
      <point x="1049" y="335" type="line" name=".hr01"/>
      <point x="855" y="335" type="line"/>
      <point x="790" y="0" type="line" name=".hr02"/>
      <point x="565" y="0" type="line"/>
      <point x="624" y="335" type="line" name=".hr03"/>
      <point x="413" y="335" type="line"/>
      <point x="353" y="0" type="line" name=".hr04"/>
      <point x="124" y="0" type="line"/>
      <point x="187" y="335" type="line" name=".hr05"/>
      <point x="34" y="335" type="line"/>
      <point x="34" y="560" type="line"/>
      <point x="228" y="560" type="line"/>
      <point x="293" y="913" type="line"/>
      <point x="140" y="913" type="line"/>
      <point x="140" y="1138" type="line"/>
      <point x="334" y="1138" type="line"/>
      <point x="397" y="1473" type="line" name=".hr06"/>
      <point x="623" y="1473" type="line"/>
      <point x="559" y="1138" type="line" name=".hr07"/>
      <point x="776" y="1138" type="line"/>
      <point x="836" y="1473" type="line" name=".hr08"/>
      <point x="1065" y="1473" type="line"/>
      <point x="1001" y="1138" type="line" name=".hr09"/>
    </contour>
  </outline>
</glyph>
<glyph name="dollar" format="2">
  <advance width="1200"/>
  <unicode hex="0024"/>
  <outline>
    <contour>
      <point x="817" y="224" type="line"/>
      <point x="840" y="243" type="line"/>
      <point x="840" y="488" type="line"/>
      <point x="799" y="545" type="line"/>
      <point x="299" y="545" type="line"/>
      <point x="120" y="811" type="line"/>
      <point x="120" y="1156" type="line"/>
      <point x="303" y="1346" type="line"/>
      <point x="480" y="1346" type="line"/>
      <point x="480" y="1677" type="line"/>
      <point x="724" y="1677" type="line"/>
      <point x="724" y="1346" type="line"/>
      <point x="902" y="1346" type="line"/>
      <point x="1037" y="1138" type="line"/>
      <point x="878" y="981" type="line"/>
      <point x="782" y="1122" type="line"/>
      <point x="396" y="1122" type="line"/>
      <point x="360" y="1084" type="line"/>
      <point x="360" y="856" type="line"/>
      <point x="419" y="769" type="line"/>
      <point x="920" y="769" type="line"/>
      <point x="1080" y="529" type="line"/>
      <point x="1080" y="169" type="line"/>
      <point x="917" y="0" type="line"/>
      <point x="724" y="0" type="line"/>
      <point x="724" y="-332" type="line"/>
      <point x="480" y="-332" type="line"/>
      <point x="480" y="0" type="line"/>
      <point x="226" y="0" type="line"/>
      <point x="108" y="167" type="line"/>
      <point x="264" y="330" type="line"/>
      <point x="342" y="224" type="line"/>
    </contour>
  </outline>
</glyph>
<glyph name="ampersand" format="2">
  <advance width="1200"/>
  <unicode hex="0026"/>
  <outline>
    <contour>
      <point x="345" y="1473" type="line"/>
      <point x="820" y="1473" type="line"/>
      <point x="950" y="1284" type="line"/>
      <point x="950" y="1158" type="line"/>
      <point x="634" y="829" type="line"/>
      <point x="868" y="478" type="line"/>
      <point x="917" y="530" type="line"/>
      <point x="880" y="530" type="line"/>
      <point x="880" y="754" type="line"/>
      <point x="1200" y="754" type="line"/>
      <point x="1200" y="496" type="line"/>
      <point x="996" y="287" type="line"/>
      <point x="1194" y="0" type="line"/>
      <point x="923" y="0" type="line"/>
      <point x="837" y="125" type="line"/>
      <point x="719" y="0" type="line"/>
      <point x="146" y="0" type="line"/>
      <point x="0" y="215" type="line"/>
      <point x="0" y="498" type="line"/>
      <point x="345" y="855" type="line"/>
      <point x="160" y="1128" type="line"/>
      <point x="160" y="1279" type="line"/>
    </contour>
    <contour>
      <point x="387" y="1191" type="line"/>
      <point x="504" y="1020" type="line"/>
      <point x="714" y="1234" type="line"/>
      <point x="705" y="1249" type="line"/>
      <point x="442" y="1249" type="line"/>
    </contour>
    <contour>
      <point x="240" y="260" type="line"/>
      <point x="264" y="224" type="line" name=".hr01"/>
      <point x="625" y="224" type="line"/>
      <point x="710" y="312" type="line"/>
      <point x="471" y="665" type="line"/>
      <point x="240" y="423" type="line"/>
    </contour>
  </outline>
</glyph>
<glyph name="parenleft" format="2">
  <advance width="1200"/>
  <unicode hex="0028"/>
  <outline>
    <contour>
      <point x="779" y="1746" type="line"/>
      <point x="954" y="1531" type="line"/>
      <point x="480" y="1042" type="line"/>
      <point x="480" y="254" type="line"/>
      <point x="954" y="-235" type="line"/>
      <point x="779" y="-450" type="line"/>
      <point x="200" y="148" type="line"/>
      <point x="200" y="1148" type="line"/>
    </contour>
  </outline>
</glyph>
<glyph name="asterisk" format="2">
  <advance width="1200"/>
  <unicode hex="002A"/>
  <outline>
    <contour>
      <point x="481" y="1095" type="line"/>
      <point x="719" y="1095" type="line"/>
      <point x="719" y="837" type="line"/>
      <point x="965" y="915" type="line"/>
      <point x="1038" y="688" type="line"/>
      <point x="794" y="610" type="line"/>
      <point x="944" y="400" type="line"/>
      <point x="750" y="259" type="line"/>
      <point x="598" y="469" type="line"/>
      <point x="447" y="259" type="line"/>
      <point x="253" y="400" type="line"/>
      <point x="405" y="610" type="line"/>
      <point x="158" y="688" type="line"/>
      <point x="236" y="915" type="line"/>
      <point x="481" y="837" type="line"/>
    </contour>
  </outline>
</glyph>
<glyph name="comma" format="2">
  <advance width="1200"/>
  <unicode hex="002C"/>
  <outline>
    <contour>
      <point x="420" y="344" type="line"/>
      <point x="780" y="344" type="line"/>
      <point x="780" y="-233" type="line"/>
      <point x="561" y="-455" type="line"/>
      <point x="434" y="-262" type="line"/>
      <point x="540" y="-151" type="line" name=".hr01"/>
      <point x="540" y="0" type="line"/>
      <point x="420" y="0" type="line" name=".hr02"/>
    </contour>
  </outline>
</glyph>
<glyph name="hyphen" format="2">
  <advance width="1200"/>
  <unicode hex="002D"/>
  <outline>
    <contour>
      <point x="980" y="560" type="line"/>
      <point x="980" y="784" type="line"/>
      <point x="220" y="784" type="line"/>
      <point x="220" y="560" type="line"/>
    </contour>
  </outline>
</glyph>
<glyph name="period" format="2">
  <advance width="1200"/>
  <unicode hex="002E"/>
  <outline>
    <contour>
      <point x="460" y="0" type="line"/>
      <point x="739" y="0" type="line"/>
      <point x="739" y="272" type="line"/>
      <point x="460" y="272" type="line"/>
    </contour>
  </outline>
</glyph>
<glyph name="slash" format="2">
  <advance width="1200"/>
  <unicode hex="002F"/>
  <outline>
    <contour>
      <point x="942" y="1636" type="line"/>
      <point x="58" y="-197" type="line"/>
      <point x="258" y="-292" type="line"/>
      <point x="1142" y="1541" type="line"/>
    </contour>
  </outline>
</glyph>
<glyph name="one" format="2">
  <advance width="1200"/>
  <unicode hex="0031"/>
  <outline>
    <contour>
      <point x="503" y="1432" type="line"/>
      <point x="722" y="1432" type="line"/>
      <point x="722" y="224" type="line"/>
      <point x="1080" y="224" type="line"/>
      <point x="1080" y="0" type="line"/>
      <point x="120" y="0" type="line"/>
      <point x="120" y="224" type="line"/>
      <point x="480" y="224" type="line"/>
      <point x="480" y="1085" type="line"/>
      <point x="265" y="862" type="line"/>
      <point x="135" y="1054" type="line"/>
    </contour>
  </outline>
</glyph>
<glyph name="three" format="2">
  <advance width="1200"/>
  <unicode hex="0033"/>
  <outline>
    <contour>
      <point x="120" y="1432" type="line"/>
      <point x="1080" y="1432" type="line"/>
      <point x="1080" y="1210" type="line"/>
      <point x="738" y="855" type="line" name=".hr01"/>
      <point x="873" y="855" type="line"/>
      <point x="1080" y="544" type="line"/>
      <point x="1080" y="198" type="line"/>
      <point x="891" y="0" type="line"/>
      <point x="120" y="0" type="line"/>
      <point x="120" y="224" type="line" name=".hr02"/>
      <point x="793" y="224" type="line"/>
      <point x="842" y="273" type="line"/>
      <point x="842" y="502" type="line"/>
      <point x="724" y="671" type="line"/>
      <point x="420" y="671" type="line"/>
      <point x="420" y="848" type="line"/>
      <point x="770" y="1208" type="line" name=".hr03"/>
      <point x="120" y="1208" type="line"/>
    </contour>
  </outline>
</glyph>
<glyph name="five" format="2">
  <advance width="1200"/>
  <unicode hex="0035"/>
  <outline>
    <contour>
      <point x="120" y="1432" type="line"/>
      <point x="1040" y="1432" type="line"/>
      <point x="1040" y="1208" type="line"/>
      <point x="360" y="1208" type="line"/>
      <point x="360" y="1020" type="line"/>
      <point x="369" y="1000" type="line"/>
      <point x="841" y="1000" type="line"/>
      <point x="1080" y="650" type="line"/>
      <point x="1080" y="197.668" type="line"/>
      <point x="891" y="-0.332336" type="line"/>
      <point x="120" y="-0.332336" type="line"/>
      <point x="120" y="223.668" type="line"/>
      <point x="791" y="223.668" type="line"/>
      <point x="840" y="272.668" type="line"/>
      <point x="840" y="608" type="line"/>
      <point x="723" y="776" type="line"/>
      <point x="237" y="776" type="line"/>
      <point x="120" y="949" type="line"/>
    </contour>
  </outline>
</glyph>
<glyph name="seven" format="2">
  <advance width="1200"/>
  <unicode hex="0037"/>
  <outline>
    <contour>
      <point x="120" y="1432" type="line"/>
      <point x="1080" y="1432" type="line"/>
      <point x="1080" y="1117" type="line"/>
      <point x="520" y="544" type="line"/>
      <point x="520" y="0" type="line"/>
      <point x="280" y="0" type="line"/>
      <point x="280" y="619" type="line"/>
      <point x="840" y="1192" type="line"/>
      <point x="840" y="1208" type="line"/>
      <point x="120" y="1208" type="line"/>
    </contour>
  </outline>
</glyph>
<glyph name="nine" format="2">
  <advance width="1200"/>
  <unicode hex="0039"/>
  <outline>
    <contour>
      <point x="241" y="1432" type="line"/>
      <point x="849" y="1432" type="line"/>
      <point x="1080" y="1086" type="line"/>
      <point x="1080" y="318" type="line"/>
      <point x="799" y="0" type="line"/>
      <point x="200" y="0" type="line"/>
      <point x="200" y="224" type="line"/>
      <point x="697" y="224" type="line"/>
      <point x="840" y="390" type="line"/>
      <point x="840" y="631" type="line"/>
      <point x="350" y="631" type="line"/>
      <point x="120" y="973" type="line"/>
      <point x="120" y="1306" type="line"/>
    </contour>
    <contour>
      <point x="360" y="1018" type="line"/>
      <point x="468" y="855" type="line"/>
      <point x="840" y="855" type="line"/>
      <point x="840" y="1040" type="line"/>
      <point x="727" y="1208" type="line"/>
      <point x="360" y="1208" type="line"/>
    </contour>
  </outline>
</glyph>
<glyph name="colon" format="2">
  <advance width="1200"/>
  <unicode hex="003A"/>
  <outline>
    <contour>
      <point x="425" y="40" type="line"/>
      <point x="425" y="375" type="line"/>
      <point x="776" y="375" type="line"/>
      <point x="776" y="40" type="line"/>
    </contour>
    <contour>
      <point x="425" y="712" type="line"/>
      <point x="425" y="1047" type="line"/>
      <point x="776" y="1047" type="line"/>
      <point x="776" y="712" type="line"/>
    </contour>
  </outline>
</glyph>
<glyph name="less" format="2">
  <advance width="1200"/>
  <unicode hex="003C"/>
  <outline>
    <contour>
      <point x="837" y="1327" type="line"/>
      <point x="223" y="733" type="line"/>
      <point x="223" y="614" type="line"/>
      <point x="837" y="17" type="line"/>
      <point x="994" y="179" type="line"/>
      <point x="484" y="674" type="line"/>
      <point x="994" y="1164" type="line"/>
    </contour>
  </outline>
</glyph>
<glyph name="equal" format="2">
  <advance width="1200"/>
  <unicode hex="003D"/>
  <outline>
    <contour>
      <point x="1010" y="926" type="line"/>
      <point x="1010" y="686" type="line"/>
      <point x="190" y="686" type="line"/>
      <point x="190" y="926" type="line"/>
    </contour>
    <contour>
      <point x="1010" y="558" type="line"/>
      <point x="1010" y="318" type="line"/>
      <point x="190" y="318" type="line"/>
      <point x="190" y="558" type="line"/>
    </contour>
  </outline>
</glyph>
<glyph name="greater" format="2">
  <advance width="1200"/>
  <unicode hex="003E"/>
  <outline>
    <contour>
      <point x="363" y="1327" type="line"/>
      <point x="206" y="1164" type="line"/>
      <point x="716" y="674" type="line"/>
      <point x="207" y="179" type="line"/>
      <point x="359" y="17" type="line"/>
      <point x="977" y="614" type="line"/>
      <point x="977" y="733" type="line"/>
    </contour>
  </outline>
</glyph>
<glyph name="at" format="2">
  <advance width="1200"/>
  <unicode hex="0040"/>
  <outline>
    <contour>
      <point x="179" y="1350" type="line"/>
      <point x="987" y="1350" type="line"/>
      <point x="1200" y="1031" type="line"/>
      <point x="1200" y="200" type="line"/>
      <point x="1055" y="50" type="line"/>
      <point x="876" y="50" type="line"/>
      <point x="760" y="253" type="line"/>
      <point x="619" y="151" type="line"/>
      <point x="440" y="151" type="line"/>
      <point x="280" y="388" type="line"/>
      <point x="280" y="552" type="line"/>
      <point x="490" y="765" type="line"/>
      <point x="720" y="765" type="line"/>
      <point x="720" y="865" type="line"/>
      <point x="360" y="865" type="line"/>
      <point x="360" y="1059" type="line"/>
      <point x="798" y="1059" type="line"/>
      <point x="920" y="880" type="line"/>
      <point x="920" y="242" type="line"/>
      <point x="947" y="202" type="line"/>
      <point x="990" y="242" type="line"/>
      <point x="990" y="952" type="line"/>
      <point x="860" y="1146" type="line"/>
      <point x="282" y="1146" type="line"/>
      <point x="200" y="1064" type="line"/>
      <point x="200" y="340" type="line"/>
      <point x="400" y="60" type="line"/>
      <point x="776" y="60" type="line"/>
      <point x="776" y="-144" type="line"/>
      <point x="284" y="-144" type="line"/>
      <point x="0" y="260" type="line"/>
      <point x="0" y="1166" type="line"/>
    </contour>
    <contour>
      <point x="480" y="442" type="line"/>
      <point x="539" y="355" type="line"/>
      <point x="720" y="355" type="line"/>
      <point x="720" y="581" type="line"/>
      <point x="563" y="581" type="line"/>
      <point x="480" y="494" type="line"/>
    </contour>
  </outline>
</glyph>
<glyph name="B" format="2">
  <advance width="1200"/>
  <unicode hex="0042"/>
  <anchor x="600" y="1541" name="top"/>
  <anchor x="600" y="-150" name="bottom"/>
  <outline>
    <contour>
      <point x="120" y="1391" type="line"/>
      <point x="948" y="1391" type="line"/>
      <point x="1060" y="1228" type="line"/>
      <point x="1060" y="1017" type="line"/>
      <point x="867" y="814" type="line"/>
      <point x="876" y="814" type="line"/>
      <point x="1080" y="516" type="line"/>
      <point x="1080" y="116" type="line"/>
      <point x="891" y="0" type="line"/>
      <point x="120" y="0" type="line"/>
    </contour>
    <contour>
      <point x="360" y="1167" type="line"/>
      <point x="360" y="814" type="line"/>
      <point x="557" y="814" type="line"/>
      <point x="820" y="1088" type="line"/>
      <point x="820" y="1167" type="line"/>
    </contour>
    <contour>
      <point x="360" y="590" type="line"/>
      <point x="360" y="224" type="line"/>
      <point x="840" y="224" type="line"/>
      <point x="840" y="474" type="line"/>
      <point x="757" y="590" type="line"/>
    </contour>
  </outline>
</glyph>
<glyph name="C" format="2">
  <advance width="1200"/>
  <unicode hex="0043"/>
  <anchor x="594" y="1543" name="top"/>
  <anchor x="594" y="-150" name="bottom"/>
  <outline>
    <contour>
      <point x="304" y="1393" type="line"/>
      <point x="901" y="1393" type="line"/>
      <point x="1063" y="1149" type="line"/>
      <point x="904" y="983" type="line"/>
      <point x="783" y="1166" type="line"/>
      <point x="397" y="1166" type="line"/>
      <point x="360" y="1126" type="line"/>
      <point x="360" y="311" type="line"/>
      <point x="418" y="224" type="line"/>
      <point x="800" y="224" type="line"/>
      <point x="942" y="366" type="line"/>
      <point x="1067" y="180" type="line"/>
      <point x="897" y="0" type="line"/>
      <point x="299" y="0" type="line"/>
      <point x="120" y="266" type="line"/>
      <point x="120" y="1204" type="line"/>
    </contour>
  </outline>
</glyph>
<glyph name="G" format="2">
  <advance width="1200"/>
  <unicode hex="0047"/>
  <anchor x="600" y="1543" name="top"/>
  <anchor x="600" y="-150" name="bottom"/>
  <outline>
    <contour>
      <point x="303" y="1393" type="line"/>
      <point x="896" y="1393" type="line"/>
      <point x="1059" y="1149" type="line"/>
      <point x="900" y="987" type="line"/>
      <point x="778" y="1169" type="line"/>
      <point x="396" y="1169" type="line"/>
      <point x="360" y="1130" type="line"/>
      <point x="360" y="302" type="line"/>
      <point x="410" y="224" type="line"/>
      <point x="840" y="224" type="line"/>
      <point x="840" y="630" type="line"/>
      <point x="560" y="630" type="line"/>
      <point x="560" y="854" type="line"/>
      <point x="980" y="854" type="line"/>
      <point x="1080" y="703" type="line"/>
      <point x="1080" y="0" type="line"/>
      <point x="292" y="0" type="line"/>
      <point x="120" y="257" type="line"/>
      <point x="120" y="1202" type="line"/>
    </contour>
  </outline>
</glyph>
<glyph name="H" format="2">
  <advance width="1200"/>
  <unicode hex="0048"/>
  <anchor x="600" y="1541" name="top"/>
  <anchor x="600" y="-150" name="bottom"/>
  <anchor x="600" y="1051" name="middleTop"/>
  <anchor x="600" y="696" name="middleBottom"/>
  <anchor x="20" y="696" name="left"/>
  <anchor x="1180" y="696" name="right"/>
  <outline>
    <contour>
      <point x="120" y="1391" type="line"/>
      <point x="360" y="1391" type="line"/>
      <point x="360" y="790" type="line"/>
      <point x="475" y="855" type="line"/>
      <point x="730" y="855" type="line"/>
      <point x="840" y="791" type="line"/>
      <point x="840" y="1391" type="line"/>
      <point x="1080" y="1391" type="line"/>
      <point x="1080" y="0" type="line"/>
      <point x="840" y="0" type="line"/>
      <point x="840" y="548" type="line"/>
      <point x="783" y="631" type="line"/>
      <point x="395" y="631" type="line"/>
      <point x="360" y="595" type="line"/>
      <point x="360" y="0" type="line"/>
      <point x="120" y="0" type="line"/>
    </contour>
  </outline>
</glyph>
<glyph name="I" format="2">
  <advance width="1200"/>
  <unicode hex="0049"/>
  <anchor x="606" y="1541" name="top"/>
  <anchor x="600" y="-150" name="bottom"/>
  <outline>
    <contour>
      <point x="120" y="1391" type="line"/>
      <point x="1080" y="1391" type="line"/>
      <point x="1080" y="1166" type="line"/>
      <point x="720" y="1166" type="line"/>
      <point x="720" y="225" type="line"/>
      <point x="1080" y="225" type="line"/>
      <point x="1080" y="0" type="line"/>
      <point x="120" y="0" type="line"/>
      <point x="120" y="225" type="line"/>
      <point x="480" y="225" type="line"/>
      <point x="480" y="1166" type="line"/>
      <point x="120" y="1166" type="line"/>
    </contour>
  </outline>
</glyph>
<glyph name="L" format="2">
  <advance width="1200"/>
  <unicode hex="004C"/>
  <anchor x="600" y="1541" name="top"/>
  <anchor x="600" y="-150" name="bottom"/>
  <anchor x="20" y="696" name="left"/>
  <anchor x="768" y="940" name="right"/>
  <outline>
    <contour>
      <point x="120" y="1391" type="line"/>
      <point x="360" y="1391" type="line"/>
      <point x="360" y="314" type="line"/>
      <point x="422" y="225" type="line"/>
      <point x="840" y="225" type="line"/>
      <point x="840" y="369" type="line"/>
      <point x="1080" y="369" type="line"/>
      <point x="1080" y="0" type="line"/>
      <point x="301" y="0" type="line"/>
      <point x="120" y="274" type="line"/>
    </contour>
  </outline>
</glyph>
<glyph name="M" format="2">
  <advance width="1200"/>
  <unicode hex="004D"/>
  <anchor x="570" y="1542" name="top"/>
  <anchor x="600" y="-150" name="bottom"/>
  <outline>
    <contour>
      <point x="120" y="1392" type="line"/>
      <point x="360" y="1392" type="line"/>
      <point x="360" y="1370" type="line"/>
      <point x="570" y="1057" type="line"/>
      <point x="840" y="1392" type="line"/>
      <point x="1080" y="1392" type="line"/>
      <point x="1080" y="0" type="line"/>
      <point x="840" y="0" type="line"/>
      <point x="840" y="1068" type="line"/>
      <point x="682" y="883" type="line"/>
      <point x="682" y="756" type="line"/>
      <point x="510" y="756" type="line"/>
      <point x="510" y="788" type="line"/>
      <point x="360" y="1012" type="line"/>
      <point x="360" y="0" type="line"/>
      <point x="120" y="0" type="line"/>
    </contour>
  </outline>
</glyph>
<glyph name="N" format="2">
  <advance width="1200"/>
  <unicode hex="004E"/>
  <anchor x="600" y="1542" name="top"/>
  <anchor x="600" y="-150" name="bottom"/>
  <outline>
    <contour>
      <point x="840" y="1392" type="line"/>
      <point x="1080" y="1392" type="line"/>
      <point x="1080" y="0" type="line"/>
      <point x="840" y="0" type="line"/>
      <point x="840" y="438" type="line"/>
      <point x="376" y="1128" type="line"/>
      <point x="360" y="1128" type="line"/>
      <point x="360" y="0" type="line"/>
      <point x="120" y="0" type="line"/>
      <point x="120" y="1392" type="line"/>
      <point x="495" y="1392" type="line"/>
      <point x="840" y="847" type="line"/>
    </contour>
  </outline>
</glyph>
<glyph name="O" format="2">
  <advance width="1200"/>
  <unicode hex="004F"/>
  <anchor x="600" y="1542" name="top"/>
  <anchor x="600" y="-150" name="bottom"/>
  <outline>
    <contour>
      <point x="304" y="1392" type="line"/>
      <point x="905" y="1392" type="line"/>
      <point x="1080" y="1126" type="line"/>
      <point x="1080" y="190" type="line"/>
      <point x="900" y="0" type="line"/>
      <point x="301" y="0" type="line"/>
      <point x="120" y="266" type="line"/>
      <point x="120" y="1202" type="line"/>
    </contour>
    <contour>
      <point x="360" y="311" type="line"/>
      <point x="418" y="224" type="line"/>
      <point x="803" y="224" type="line"/>
      <point x="840" y="264" type="line"/>
      <point x="840" y="1081" type="line"/>
      <point x="782" y="1168" type="line"/>
      <point x="397" y="1168" type="line"/>
      <point x="360" y="1128" type="line"/>
    </contour>
  </outline>
</glyph>
<glyph name="Q" format="2">
  <advance width="1200"/>
  <unicode hex="0051"/>
  <anchor x="600" y="1541" name="top"/>
  <anchor x="600" y="-150" name="bottom"/>
  <outline>
    <contour>
      <point x="306" y="1391" type="line"/>
      <point x="899" y="1391" type="line"/>
      <point x="1080" y="1125" type="line"/>
      <point x="1080" y="623" type="line"/>
      <point x="840" y="374" type="line"/>
      <point x="840" y="1083" type="line"/>
      <point x="783" y="1167" type="line"/>
      <point x="395" y="1167" type="line"/>
      <point x="360" y="1129" type="line"/>
      <point x="360" y="312" type="line"/>
      <point x="418" y="224" type="line"/>
      <point x="667" y="224" type="line"/>
      <point x="605" y="316" type="line"/>
      <point x="789" y="442" type="line"/>
      <point x="1066" y="30" type="line"/>
      <point x="884" y="-96" type="line"/>
      <point x="815" y="0" type="line"/>
      <point x="301" y="0" type="line"/>
      <point x="120" y="266" type="line"/>
      <point x="120" y="1201" type="line"/>
    </contour>
  </outline>
</glyph>
<glyph name="S" format="2">
  <advance width="1200"/>
  <unicode hex="0053"/>
  <anchor x="594" y="1541" name="top"/>
  <anchor x="594" y="-150" name="bottom"/>
  <outline>
    <contour>
      <point x="303" y="1391" type="line"/>
      <point x="120" y="1201" type="line"/>
      <point x="120" y="851" type="line"/>
      <point x="299" y="585" type="line"/>
      <point x="799" y="585" type="line"/>
      <point x="840" y="528" type="line"/>
      <point x="840" y="243" type="line"/>
      <point x="817" y="224" type="line"/>
      <point x="342" y="224" type="line"/>
      <point x="264" y="330" type="line"/>
      <point x="108" y="167" type="line"/>
      <point x="226" y="0" type="line"/>
      <point x="917" y="0" type="line"/>
      <point x="1080" y="169" type="line"/>
      <point x="1080" y="569" type="line"/>
      <point x="920" y="809" type="line"/>
      <point x="419" y="809" type="line"/>
      <point x="360" y="896" type="line"/>
      <point x="360" y="1128" type="line"/>
      <point x="396" y="1167" type="line"/>
      <point x="782" y="1167" type="line"/>
      <point x="878" y="1026" type="line"/>
      <point x="1039" y="1184" type="line"/>
      <point x="902" y="1391" type="line"/>
    </contour>
  </outline>
</glyph>
<glyph name="T" format="2">
  <advance width="1200"/>
  <unicode hex="0054"/>
  <anchor x="600" y="1541" name="top"/>
  <anchor x="600" y="-150" name="bottom"/>
  <anchor x="600" y="596" name="middleTop"/>
  <outline>
    <contour>
      <point x="80" y="1391" type="line"/>
      <point x="80" y="1167" type="line"/>
      <point x="422" y="1167" type="line"/>
      <point x="480" y="1079" type="line"/>
      <point x="480" y="0" type="line"/>
      <point x="720" y="0" type="line"/>
      <point x="720" y="1135" type="line"/>
      <point x="668" y="1167" type="line"/>
      <point x="1120" y="1167" type="line"/>
      <point x="1120" y="1391" type="line"/>
    </contour>
  </outline>
</glyph>
<glyph name="W" format="2">
  <advance width="1200"/>
  <unicode hex="0057"/>
  <anchor x="600" y="1542" name="top"/>
  <anchor x="609" y="-150" name="bottom"/>
  <outline>
    <contour>
      <point x="80" y="1392" type="line"/>
      <point x="320" y="1392" type="line"/>
      <point x="320" y="421" type="line"/>
      <point x="415" y="282" type="line"/>
      <point x="424" y="282" type="line"/>
      <point x="480" y="336" type="line"/>
      <point x="480" y="866" type="line"/>
      <point x="720" y="866" type="line"/>
      <point x="720" y="393" type="line"/>
      <point x="788" y="281" type="line"/>
      <point x="796" y="281" type="line"/>
      <point x="880" y="371" type="line"/>
      <point x="880" y="1392" type="line"/>
      <point x="1120" y="1392" type="line"/>
      <point x="1120" y="266" type="line"/>
      <point x="862" y="0" type="line"/>
      <point x="674" y="0" type="line"/>
      <point x="609" y="113" type="line"/>
      <point x="504" y="0" type="line"/>
      <point x="319" y="0" type="line"/>
      <point x="80" y="354" type="line"/>
    </contour>
  </outline>
</glyph>
<glyph name="X" format="2">
  <advance width="1200"/>
  <unicode hex="0058"/>
  <anchor x="600" y="1541" name="top"/>
  <anchor x="600" y="-150" name="bottom"/>
  <outline>
    <contour>
      <point x="800" y="1391" type="line"/>
      <point x="1040" y="1391" type="line"/>
      <point x="1040" y="967" type="line"/>
      <point x="852" y="774" type="line"/>
      <point x="1040" y="498" type="line"/>
      <point x="1040" y="0" type="line"/>
      <point x="800" y="0" type="line"/>
      <point x="800" y="453" type="line"/>
      <point x="699" y="594" type="line"/>
      <point x="610" y="594" type="line"/>
      <point x="400" y="376" type="line"/>
      <point x="400" y="0" type="line"/>
      <point x="160" y="0" type="line"/>
      <point x="160" y="452" type="line"/>
      <point x="348" y="644" type="line"/>
      <point x="160" y="921" type="line"/>
      <point x="160" y="1391" type="line"/>
      <point x="400" y="1391" type="line"/>
      <point x="400" y="965" type="line"/>
      <point x="497" y="819" type="line"/>
      <point x="591" y="819" type="line"/>
      <point x="800" y="1037" type="line"/>
    </contour>
  </outline>
</glyph>
<glyph name="Y" format="2">
  <advance width="1200"/>
  <unicode hex="0059"/>
  <anchor x="600" y="1541" name="top"/>
  <anchor x="600" y="-150" name="bottom"/>
  <outline>
    <contour>
      <point x="840" y="1391" type="line"/>
      <point x="840" y="1083" type="line"/>
      <point x="605" y="838" type="line"/>
      <point x="601" y="838" type="line"/>
      <point x="360" y="1197" type="line"/>
      <point x="360" y="1391" type="line"/>
      <point x="120" y="1391" type="line"/>
      <point x="120" y="1157" type="line"/>
      <point x="480" y="622" type="line"/>
      <point x="480" y="0" type="line"/>
      <point x="720" y="0" type="line"/>
      <point x="720" y="635" type="line"/>
      <point x="1080" y="1008" type="line"/>
      <point x="1080" y="1391" type="line"/>
    </contour>
  </outline>
</glyph>
<glyph name="grave" format="2">
  <advance width="1200"/>
  <unicode hex="0060"/>
  <outline>
    <contour>
      <point x="768" y="1240" type="line"/>
      <point x="309" y="1461" type="line"/>
      <point x="438" y="1648" type="line"/>
      <point x="852" y="1377" type="line"/>
    </contour>
  </outline>
</glyph>
<glyph name="a" format="2">
  <advance width="1200"/>
  <unicode hex="0061"/>
  <anchor x="600" y="1286" name="top"/>
  <anchor x="600" y="-150" name="bottom"/>
  <outline>
    <contour>
      <point x="280" y="1136" type="line"/>
      <point x="941" y="1136" type="line"/>
      <point x="1080" y="931" type="line"/>
      <point x="1080" y="0" type="line"/>
      <point x="840" y="0" type="line"/>
      <point x="840" y="66" type="line"/>
      <point x="731" y="0" type="line"/>
      <point x="299" y="0" type="line"/>
      <point x="120" y="266" type="line"/>
      <point x="120" y="372" type="line"/>
      <point x="441" y="705" type="line"/>
      <point x="840" y="705" type="line"/>
      <point x="840" y="914" type="line"/>
      <point x="280" y="914" type="line"/>
    </contour>
    <contour>
      <point x="368" y="310" type="line"/>
      <point x="407" y="225" type="line"/>
      <point x="832" y="225" type="line"/>
      <point x="832" y="480" type="line"/>
      <point x="529" y="480" type="line"/>
      <point x="368" y="314" type="line"/>
    </contour>
  </outline>
</glyph>
<glyph name="c" format="2">
  <advance width="1200"/>
  <unicode hex="0063"/>
  <anchor x="591" y="1250" name="top"/>
  <anchor x="591" y="-150" name="bottom"/>
  <outline>
    <contour>
      <point x="297" y="1100" type="line"/>
      <point x="120" y="917" type="line"/>
      <point x="120" y="260" type="line"/>
      <point x="295" y="0" type="line"/>
      <point x="893" y="0" type="line"/>
      <point x="1057" y="170" type="line"/>
      <point x="941" y="343" type="line"/>
      <point x="806" y="204" type="line"/>
      <point x="423" y="204" type="line"/>
      <point x="360" y="297" type="line"/>
      <point x="360" y="824" type="line"/>
      <point x="404" y="869" type="line"/>
      <point x="787" y="869" type="line"/>
      <point x="906" y="695" type="line"/>
      <point x="1061" y="855" type="line"/>
      <point x="896" y="1100" type="line"/>
    </contour>
  </outline>
</glyph>
<glyph name="d" format="2">
  <advance width="1200"/>
  <unicode hex="0064"/>
  <anchor x="600" y="1678" name="top"/>
  <anchor x="600" y="-150" name="bottom"/>
  <anchor x="20" y="764" name="left"/>
  <anchor x="1180" y="764" name="right"/>
  <anchor x="804" y="1190" name="middleTop"/>
  <outline>
    <contour>
      <point x="360" y="832" type="line"/>
      <point x="400" y="872" type="line"/>
      <point x="782" y="872" type="line"/>
      <point x="840" y="786" type="line"/>
      <point x="840" y="261" type="line"/>
      <point x="804" y="225" type="line"/>
      <point x="418" y="225" type="line"/>
      <point x="360" y="311" type="line"/>
    </contour>
    <contour>
      <point x="840" y="1032" type="line"/>
      <point x="732" y="1097" type="line"/>
      <point x="303" y="1097" type="line"/>
      <point x="120" y="905" type="line"/>
      <point x="120" y="268" type="line"/>
      <point x="303" y="0" type="line"/>
      <point x="732" y="0" type="line"/>
      <point x="840" y="65" type="line"/>
      <point x="840" y="0" type="line"/>
      <point x="1080" y="0" type="line"/>
      <point x="1080" y="1528" type="line"/>
      <point x="840" y="1528" type="line"/>
    </contour>
  </outline>
</glyph>
<glyph name="f" format="2">
  <advance width="1200"/>
  <unicode hex="0066"/>
  <anchor x="600" y="1542" name="top"/>
  <anchor x="400" y="-150" name="bottom"/>
  <outline>
    <contour>
      <point x="485" y="1392" type="line"/>
      <point x="955" y="1392" type="line"/>
      <point x="1080" y="1211" type="line"/>
      <point x="922" y="1048" type="line"/>
      <point x="840" y="1168" type="line"/>
      <point x="584" y="1168" type="line"/>
      <point x="520" y="1103" type="line"/>
      <point x="520" y="856" type="line"/>
      <point x="840" y="856" type="line"/>
      <point x="840" y="632" type="line"/>
      <point x="520" y="632" type="line"/>
      <point x="520" y="0" type="line"/>
      <point x="280" y="0" type="line"/>
      <point x="280" y="632" type="line"/>
      <point x="120" y="632" type="line"/>
      <point x="120" y="856" type="line"/>
      <point x="280" y="856" type="line"/>
      <point x="280" y="1181" type="line"/>
    </contour>
  </outline>
</glyph>
<glyph name="g" format="2">
  <advance width="1200"/>
  <unicode hex="0067"/>
  <anchor x="604" y="1248" name="top"/>
  <anchor x="604" y="-614" name="bottom"/>
  <outline>
    <contour>
      <point x="498" y="-80" type="line"/>
      <point x="418" y="-163" type="line"/>
      <point x="469" y="-238" type="line"/>
      <point x="703" y="-238" type="line"/>
      <point x="838" y="-95" type="line"/>
      <point x="828" y="-80" type="line"/>
    </contour>
    <contour>
      <point x="399" y="804" type="line"/>
      <point x="399" y="476" type="line"/>
      <point x="712" y="476" type="line"/>
      <point x="840" y="519" type="line"/>
      <point x="840" y="791" type="line"/>
      <point x="783" y="872" type="line"/>
      <point x="463" y="872" type="line"/>
    </contour>
    <contour>
      <point x="734" y="250" type="line"/>
      <point x="457" y="250" type="line"/>
      <point x="408" y="199" type="line"/>
      <point x="438" y="146" type="line"/>
      <point x="950" y="146" type="line"/>
      <point x="1088" y="-71" type="line"/>
      <point x="1088" y="-159" type="line"/>
      <point x="799" y="-464" type="line"/>
      <point x="352" y="-464" type="line"/>
      <point x="167" y="-187" type="line"/>
      <point x="167" y="-99" type="line"/>
      <point x="269" y="3" type="line"/>
      <point x="120" y="230" type="line"/>
      <point x="222" y="327" type="line"/>
      <point x="159" y="366" type="line"/>
      <point x="159" y="879" type="line"/>
      <point x="369" y="1098" type="line"/>
      <point x="734" y="1098" type="line"/>
      <point x="840" y="1033" type="line"/>
      <point x="840" y="1098" type="line"/>
      <point x="1080" y="1098" type="line"/>
      <point x="1080" y="463" type="line"/>
    </contour>
  </outline>
</glyph>
<glyph name="h" format="2">
  <advance width="1200"/>
  <unicode hex="0068"/>
  <anchor x="600" y="1679" name="top"/>
  <anchor x="600" y="-150" name="bottom"/>
  <anchor x="20" y="765" name="left"/>
  <anchor x="1180" y="765" name="right"/>
  <anchor x="540" y="665" name="middleBottom"/>
  <anchor x="400" y="1210" name="middleTop"/>
  <outline>
    <contour>
      <point x="120" y="1529" type="line"/>
      <point x="120" y="0" type="line"/>
      <point x="360" y="0" type="line"/>
      <point x="360" y="835" type="line"/>
      <point x="400" y="872" type="line"/>
      <point x="783" y="872" type="line"/>
      <point x="840" y="790" type="line"/>
      <point x="840" y="0" type="line"/>
      <point x="1080" y="0" type="line"/>
      <point x="1080" y="835" type="line"/>
      <point x="896" y="1096" type="line"/>
      <point x="468" y="1096" type="line"/>
      <point x="360" y="1031" type="line"/>
      <point x="360" y="1529" type="line"/>
    </contour>
  </outline>
</glyph>
<glyph name="l" format="2">
  <advance width="1200"/>
  <unicode hex="006C"/>
  <anchor x="515" y="1638" name="top"/>
  <anchor x="515" y="-150" name="bottom"/>
  <anchor x="100" y="744" name="left"/>
  <anchor x="1089" y="744" name="right"/>
  <outline>
    <contour>
      <point x="247" y="1488" type="line"/>
      <point x="247" y="1265" type="line"/>
      <point x="406" y="1265" type="line"/>
      <point x="406" y="264" type="line"/>
      <point x="585" y="0" type="line"/>
      <point x="1036" y="0" type="line"/>
      <point x="941" y="223" type="line"/>
      <point x="702" y="223" type="line"/>
      <point x="646" y="308" type="line"/>
      <point x="646" y="1376" type="line"/>
      <point x="457" y="1488" type="line"/>
    </contour>
  </outline>
</glyph>
<glyph name="n" format="2">
  <advance width="1200"/>
  <unicode hex="006E"/>
  <anchor x="600" y="1246" name="top"/>
  <anchor x="600" y="-150" name="bottom"/>
  <outline>
    <contour>
      <point x="120" y="1096" type="line"/>
      <point x="360" y="1096" type="line"/>
      <point x="360" y="1031" type="line"/>
      <point x="469" y="1096" type="line"/>
      <point x="901" y="1096" type="line"/>
      <point x="1080" y="832" type="line"/>
      <point x="1080" y="0" type="line"/>
      <point x="840" y="0" type="line"/>
      <point x="840" y="788" type="line"/>
      <point x="783" y="872" type="line"/>
      <point x="397" y="872" type="line"/>
      <point x="360" y="832" type="line"/>
      <point x="360" y="0" type="line"/>
      <point x="120" y="0" type="line"/>
    </contour>
  </outline>
</glyph>
<glyph name="o" format="2">
  <advance width="1200"/>
  <unicode hex="006F"/>
  <anchor x="600" y="1246" name="top"/>
  <anchor x="600" y="-150" name="bottom"/>
  <outline>
    <contour>
      <point x="302" y="1096" type="line"/>
      <point x="902" y="1096" type="line"/>
      <point x="1080" y="829" type="line"/>
      <point x="1080" y="189" type="line"/>
      <point x="898" y="0" type="line"/>
      <point x="300" y="0" type="line"/>
      <point x="120" y="267" type="line"/>
      <point x="120" y="907" type="line"/>
    </contour>
    <contour>
      <point x="360" y="310" type="line"/>
      <point x="419" y="224" type="line"/>
      <point x="804" y="224" type="line"/>
      <point x="840" y="262" type="line"/>
      <point x="840" y="787" type="line"/>
      <point x="783" y="872" type="line"/>
      <point x="398" y="872" type="line"/>
      <point x="360" y="832" type="line"/>
    </contour>
  </outline>
</glyph>
<glyph name="q" format="2">
  <advance width="1200"/>
  <unicode hex="0071"/>
  <anchor x="600" y="1246" name="top"/>
  <anchor x="600" y="-581" name="bottom"/>
  <outline>
    <contour>
      <point x="303" y="1096" type="line"/>
      <point x="729" y="1096" type="line"/>
      <point x="840" y="1030" type="line"/>
      <point x="840" y="1095" type="line"/>
      <point x="1080" y="1095" type="line"/>
      <point x="1080" y="-431" type="line"/>
      <point x="840" y="-431" type="line"/>
      <point x="840" y="65" type="line"/>
      <point x="731" y="0" type="line"/>
      <point x="299" y="0" type="line"/>
      <point x="120" y="267" type="line"/>
      <point x="120" y="907" type="line"/>
    </contour>
    <contour>
      <point x="360" y="312" type="line"/>
      <point x="419" y="224" type="line"/>
      <point x="801" y="224" type="line"/>
      <point x="840" y="263" type="line"/>
      <point x="840" y="787" type="line"/>
      <point x="780" y="872" type="line"/>
      <point x="399" y="872" type="line"/>
      <point x="360" y="833" type="line"/>
    </contour>
  </outline>
</glyph>
<glyph name="s" format="2">
  <advance width="1200"/>
  <unicode hex="0073"/>
  <anchor x="585" y="1246" name="top"/>
  <anchor x="585" y="-150" name="bottom"/>
  <outline>
    <contour>
      <point x="323" y="1110" type="line"/>
      <point x="147" y="939" type="line"/>
      <point x="147" y="719" type="line"/>
      <point x="318" y="463" type="line"/>
      <point x="786" y="463" type="line"/>
      <point x="825" y="408" type="line"/>
      <point x="825" y="246" type="line"/>
      <point x="805" y="224" type="line"/>
      <point x="360" y="224" type="line"/>
      <point x="291" y="327" type="line"/>
      <point x="136" y="168" type="line"/>
      <point x="244" y="0" type="line"/>
      <point x="907" y="0" type="line"/>
      <point x="1065" y="175" type="line"/>
      <point x="1065" y="456" type="line"/>
      <point x="909" y="687" type="line"/>
      <point x="442" y="687" type="line"/>
      <point x="387" y="767" type="line"/>
      <point x="387" y="859" type="line"/>
      <point x="422" y="890" type="line"/>
      <point x="791" y="890" type="line"/>
      <point x="886" y="751" type="line"/>
      <point x="1040" y="912" type="line"/>
      <point x="906" y="1110" type="line"/>
    </contour>
  </outline>
</glyph>
<glyph name="t" format="2">
  <advance width="1200"/>
  <unicode hex="0074"/>
  <anchor x="565" y="1638" name="top"/>
  <anchor x="641" y="-150" name="bottom"/>
  <anchor x="519" y="500" name="middleTop"/>
  <outline>
    <contour>
      <point x="279" y="1488" type="line"/>
      <point x="519" y="1488" type="line"/>
      <point x="519" y="1097" type="line"/>
      <point x="841" y="1097" type="line"/>
      <point x="841" y="872" type="line"/>
      <point x="519" y="872" type="line"/>
      <point x="519" y="311" type="line"/>
      <point x="576" y="225" type="line"/>
      <point x="742" y="225" type="line"/>
      <point x="884" y="366" type="line"/>
      <point x="1010" y="181" type="line"/>
      <point x="841" y="0" type="line"/>
      <point x="458" y="0" type="line"/>
      <point x="279" y="263" type="line"/>
      <point x="279" y="872" type="line"/>
      <point x="120" y="872" type="line"/>
      <point x="120" y="1097" type="line"/>
      <point x="279" y="1097" type="line"/>
    </contour>
  </outline>
</glyph>
<glyph name="u" format="2">
  <advance width="1200"/>
  <unicode hex="0075"/>
  <anchor x="600" y="1246" name="top"/>
  <anchor x="600" y="-150" name="bottom"/>
  <outline>
    <contour>
      <point x="840" y="1096" type="line"/>
      <point x="1080" y="1096" type="line"/>
      <point x="1080" y="0" type="line"/>
      <point x="843" y="0" type="line"/>
      <point x="843" y="65" type="line"/>
      <point x="732" y="0" type="line"/>
      <point x="301" y="0" type="line"/>
      <point x="120" y="266" type="line"/>
      <point x="120" y="1096" type="line"/>
      <point x="360" y="1096" type="line"/>
      <point x="360" y="310" type="line"/>
      <point x="418" y="225" type="line"/>
      <point x="805" y="225" type="line"/>
      <point x="840" y="262" type="line"/>
    </contour>
  </outline>
</glyph>
<glyph name="x" format="2">
  <advance width="1200"/>
  <unicode hex="0078"/>
  <anchor x="600" y="1246" name="top"/>
  <anchor x="600" y="-150" name="bottom"/>
  <outline>
    <contour>
      <point x="840" y="1096" type="line"/>
      <point x="1080" y="1096" type="line"/>
      <point x="1080" y="828" type="line"/>
      <point x="893" y="636" type="line"/>
      <point x="1080" y="360" type="line"/>
      <point x="1080" y="0" type="line"/>
      <point x="840" y="0" type="line"/>
      <point x="840" y="317" type="line"/>
      <point x="743" y="460" type="line"/>
      <point x="569" y="460" type="line"/>
      <point x="360" y="242" type="line"/>
      <point x="360" y="0" type="line"/>
      <point x="120" y="0" type="line"/>
      <point x="120" y="313" type="line"/>
      <point x="299" y="500" type="line"/>
      <point x="299" y="503" type="line"/>
      <point x="120" y="784" type="line"/>
      <point x="120" y="1096" type="line"/>
      <point x="360" y="1096" type="line"/>
      <point x="360" y="827" type="line"/>
      <point x="457" y="685" type="line"/>
      <point x="628" y="685" type="line"/>
      <point x="840" y="902" type="line"/>
    </contour>
  </outline>
</glyph>
<glyph name="y" format="2">
  <advance width="1200"/>
  <unicode hex="0079"/>
  <anchor x="600" y="1246" name="top"/>
  <anchor x="600" y="-583" name="bottom"/>
  <outline>
    <contour>
      <point x="840" y="1096" type="line"/>
      <point x="1080" y="1096" type="line"/>
      <point x="1080" y="-73" type="line"/>
      <point x="735" y="-433" type="line"/>
      <point x="120" y="-433" type="line"/>
      <point x="120" y="-208" type="line"/>
      <point x="636" y="-208" type="line"/>
      <point x="840" y="0" type="line"/>
      <point x="840" y="3" type="line"/>
      <point x="337" y="3" type="line"/>
      <point x="120" y="321" type="line"/>
      <point x="120" y="1096" type="line"/>
      <point x="360" y="1096" type="line"/>
      <point x="360" y="365" type="line"/>
      <point x="458" y="224" type="line"/>
      <point x="840" y="224" type="line"/>
    </contour>
  </outline>
</glyph>
<glyph name="z" format="2">
  <advance width="1200"/>
  <unicode hex="007A"/>
  <anchor x="600" y="1246" name="top"/>
  <anchor x="600" y="-150" name="bottom"/>
  <outline>
    <contour>
      <point x="120" y="1096" type="line"/>
      <point x="1080" y="1096" type="line"/>
      <point x="1080" y="830" type="line"/>
      <point x="494" y="224" type="line"/>
      <point x="1080" y="224" type="line"/>
      <point x="1080" y="0" type="line"/>
      <point x="120" y="0" type="line"/>
      <point x="120" y="200" type="line"/>
      <point x="760" y="865" type="line"/>
      <point x="760" y="872" type="line"/>
      <point x="120" y="872" type="line"/>
    </contour>
  </outline>
</glyph>
<glyph name="bar" format="2">
  <advance width="1200"/>
  <unicode hex="007C"/>
  <outline>
    <contour>
      <point x="480" y="-240" type="line"/>
      <point x="720" y="-240" type="line"/>
      <point x="720" y="1634" type="line"/>
      <point x="480" y="1634" type="line"/>
    </contour>
  </outline>
</glyph>
<glyph name="asciitilde" format="2">
  <advance width="1200"/>
  <unicode hex="007E"/>
  <anchor x="600" y="1540" name="top"/>
  <anchor x="600" y="1231" name="bottom"/>
  <outline>
    <contour>
      <point x="946" y="850" type="line"/>
      <point x="1040" y="690" type="line"/>
      <point x="798" y="545" type="line"/>
      <point x="437" y="647" type="line"/>
      <point x="260" y="539" type="line"/>
      <point x="166" y="699" type="line"/>
      <point x="408" y="844" type="line"/>
      <point x="774" y="746" type="line"/>
    </contour>
  </outline>
</glyph>
<glyph name="exclamdown" format="2">
  <advance width="1200"/>
  <unicode hex="00A1"/>
  <outline>
    <contour>
      <point x="743" y="878" type="line"/>
      <point x="457" y="878" type="line"/>
      <point x="457" y="1141" type="line"/>
      <point x="743" y="1141" type="line"/>
    </contour>
    <contour>
      <point x="480" y="754" type="line" name=".hr01"/>
      <point x="724" y="754" type="line"/>
      <point x="724" y="-334" type="line"/>
      <point x="480" y="-334" type="line"/>
    </contour>
  </outline>
</glyph>
<glyph name="cent" format="2">
  <advance width="1200"/>
  <unicode hex="00A2"/>
  <outline>
    <contour>
      <point x="297" y="1100" type="line"/>
      <point x="480" y="1100" type="line"/>
      <point x="480" y="1450.45" type="line"/>
      <point x="720" y="1450.45" type="line"/>
      <point x="720" y="1100" type="line"/>
      <point x="896" y="1100" type="line"/>
      <point x="1061" y="855" type="line"/>
      <point x="906" y="695" type="line"/>
      <point x="787" y="869" type="line"/>
      <point x="404" y="869" type="line"/>
      <point x="360" y="824" type="line"/>
      <point x="360" y="297" type="line"/>
      <point x="423" y="204" type="line"/>
      <point x="806" y="204" type="line"/>
      <point x="941" y="343" type="line"/>
      <point x="1057" y="170" type="line"/>
      <point x="893" y="0" type="line"/>
      <point x="720" y="0" type="line"/>
      <point x="720" y="-329.65" type="line"/>
      <point x="480" y="-329.65" type="line"/>
      <point x="480" y="0" type="line"/>
      <point x="295" y="0" type="line"/>
      <point x="120" y="260" type="line"/>
      <point x="120" y="917" type="line"/>
    </contour>
  </outline>
</glyph>
<glyph name="sterling" format="2">
  <advance width="1200"/>
  <unicode hex="00A3"/>
  <outline>
    <contour>
      <point x="420" y="1472" type="line"/>
      <point x="1091" y="1472" type="line"/>
      <point x="1091" y="1103" type="line"/>
      <point x="851" y="1103" type="line"/>
      <point x="851" y="1248" type="line"/>
      <point x="540" y="1248" type="line"/>
      <point x="481" y="1162" type="line"/>
      <point x="481" y="854" type="line"/>
      <point x="860" y="854" type="line"/>
      <point x="860" y="630" type="line"/>
      <point x="481" y="630" type="line"/>
      <point x="481" y="273" type="line"/>
      <point x="448" y="224" type="line"/>
      <point x="1088" y="224" type="line"/>
      <point x="1088" y="0" type="line"/>
      <point x="60" y="0" type="line"/>
      <point x="60" y="224" type="line"/>
      <point x="179" y="224" type="line"/>
      <point x="238" y="309" type="line"/>
      <point x="238" y="630" type="line"/>
      <point x="100" y="630" type="line"/>
      <point x="100" y="854" type="line"/>
      <point x="238" y="854" type="line"/>
      <point x="238" y="1198" type="line"/>
    </contour>
  </outline>
</glyph>
<glyph name="section" format="2">
  <advance width="1200"/>
  <unicode hex="00A7"/>
  <outline>
    <contour>
      <point x="336" y="1552" type="line"/>
      <point x="861" y="1552" type="line"/>
      <point x="995" y="1354" type="line"/>
      <point x="841" y="1193" type="line"/>
      <point x="746" y="1332" type="line"/>
      <point x="435" y="1332" type="line"/>
      <point x="400" y="1301" type="line"/>
      <point x="400" y="1180" type="line"/>
      <point x="455" y="1100" type="line"/>
      <point x="864" y="1100" type="line"/>
      <point x="1020" y="869" type="line"/>
      <point x="1020" y="595" type="line"/>
      <point x="947" y="514" type="line"/>
      <point x="1015" y="413" type="line" name=".hr01"/>
      <point x="1015" y="175" type="line"/>
      <point x="857" y="0" type="line"/>
      <point x="252" y="0" type="line"/>
      <point x="144" y="168" type="line"/>
      <point x="299" y="327" type="line"/>
      <point x="368" y="224" type="line"/>
      <point x="755" y="224" type="line"/>
      <point x="775" y="246" type="line"/>
      <point x="775" y="365" type="line"/>
      <point x="736" y="420" type="line"/>
      <point x="326" y="420" type="line"/>
      <point x="155" y="676" type="line"/>
      <point x="155" y="925" type="line"/>
      <point x="242" y="1010" type="line"/>
      <point x="160" y="1132" type="line" name=".hr02"/>
      <point x="160" y="1381" type="line"/>
    </contour>
    <contour>
      <point x="450" y="644" type="line"/>
      <point x="760" y="644" type="line"/>
      <point x="780" y="666" type="line"/>
      <point x="780" y="819" type="line"/>
      <point x="741" y="876" type="line"/>
      <point x="430" y="876" type="line"/>
      <point x="395" y="845" type="line" name=".hr03"/>
      <point x="395" y="724" type="line"/>
    </contour>
  </outline>
</glyph>
<glyph name="copyright" format="2">
  <advance width="1200"/>
  <unicode hex="00A9"/>
  <anchor x="600" y="1308" name="top"/>
  <anchor x="600" y="-110" name="bottom"/>
  <outline>
    <contour>
      <point x="402" y="983" type="line"/>
      <point x="242" y="818" type="line"/>
      <point x="242" y="464" type="line"/>
      <point x="403" y="225" type="line"/>
      <point x="816" y="225" type="line"/>
      <point x="954" y="368" type="line"/>
      <point x="872" y="490" type="line"/>
      <point x="754" y="368" type="line"/>
      <point x="480" y="368" type="line"/>
      <point x="402" y="483" type="line"/>
      <point x="402" y="777" type="line"/>
      <point x="464" y="840" type="line"/>
      <point x="739" y="840" type="line"/>
      <point x="856" y="666" type="line"/>
      <point x="958" y="772" type="line"/>
      <point x="815" y="983" type="line"/>
    </contour>
    <contour>
      <point x="363" y="1158" type="line"/>
      <point x="828" y="1158" type="line"/>
      <point x="1160" y="835" type="line"/>
      <point x="1160" y="360" type="line"/>
      <point x="828" y="40" type="line"/>
      <point x="363" y="40" type="line"/>
      <point x="40" y="360" type="line"/>
      <point x="40" y="835" type="line"/>
    </contour>
  </outline>
</glyph>
<glyph name="guillemotleft" format="2">
  <advance width="1200"/>
  <unicode hex="00AB"/>
  <outline>
    <contour>
      <point x="1073" y="163" type="line"/>
      <point x="937" y="81" type="line"/>
      <point x="569" y="527" type="line"/>
      <point x="569" y="653" type="line"/>
      <point x="937" y="1103" type="line"/>
      <point x="1073" y="1019" type="line"/>
      <point x="795" y="591" type="line"/>
    </contour>
    <contour>
      <point x="631" y="163" type="line"/>
      <point x="495" y="81" type="line"/>
      <point x="127" y="527" type="line"/>
      <point x="127" y="653" type="line"/>
      <point x="496" y="1103" type="line"/>
      <point x="631" y="1019" type="line"/>
      <point x="353" y="591" type="line"/>
    </contour>
  </outline>
</glyph>
<glyph name="logicalnot" format="2">
  <advance width="1200"/>
  <unicode hex="00AC"/>
  <outline>
    <contour>
      <point x="980" y="752" type="line"/>
      <point x="980" y="264" type="line"/>
      <point x="740" y="264" type="line"/>
      <point x="740" y="528" type="line" name=".hr01"/>
      <point x="200" y="528" type="line"/>
      <point x="200" y="752" type="line"/>
    </contour>
  </outline>
</glyph>
<glyph name="registered" format="2">
  <advance width="1200"/>
  <unicode hex="00AE"/>
  <outline>
    <contour>
      <point x="363" y="1158" type="line"/>
      <point x="828" y="1158" type="line"/>
      <point x="1160" y="835" type="line"/>
      <point x="1160" y="360" type="line"/>
      <point x="828" y="40" type="line"/>
      <point x="363" y="40" type="line"/>
      <point x="40" y="360" type="line"/>
      <point x="40" y="835" type="line"/>
    </contour>
    <contour>
      <point x="416" y="960" type="line"/>
      <point x="312" y="856" type="line"/>
      <point x="312" y="255" type="line"/>
      <point x="472" y="255" type="line"/>
      <point x="472" y="526" type="line"/>
      <point x="605" y="526" type="line"/>
      <point x="725" y="373" type="line"/>
      <point x="725" y="255" type="line"/>
      <point x="885" y="255" type="line"/>
      <point x="885" y="391" type="line"/>
      <point x="770" y="535" type="line"/>
      <point x="893" y="686" type="line"/>
      <point x="893" y="780" type="line"/>
      <point x="752" y="960" type="line"/>
    </contour>
    <contour>
      <point x="472" y="816" type="line"/>
      <point x="673" y="816" type="line"/>
      <point x="733" y="757" type="line"/>
      <point x="733" y="722" type="line"/>
      <point x="703" y="620" type="line"/>
      <point x="472" y="620" type="line"/>
    </contour>
  </outline>
</glyph>
<glyph name="degree" format="2">
  <advance width="1200"/>
  <unicode hex="00B0"/>
  <outline>
    <contour>
      <point x="501" y="1583" type="line"/>
      <point x="695" y="1583" type="line"/>
      <point x="833" y="1448" type="line"/>
      <point x="833" y="1253" type="line"/>
      <point x="695" y="1119" type="line"/>
      <point x="501" y="1119" type="line"/>
      <point x="368" y="1253" type="line"/>
      <point x="368" y="1448" type="line"/>
    </contour>
    <contour>
      <point x="563" y="1440" type="line"/>
      <point x="511" y="1389" type="line"/>
      <point x="511" y="1313" type="line"/>
      <point x="563" y="1262" type="line"/>
      <point x="637" y="1262" type="line"/>
      <point x="690" y="1313" type="line"/>
      <point x="690" y="1389" type="line"/>
      <point x="637" y="1440" type="line"/>
    </contour>
  </outline>
</glyph>
<glyph name="plusminus" format="2">
  <advance width="1200"/>
  <unicode hex="00B1"/>
  <outline>
    <contour>
      <point x="1024" y="224" type="line"/>
      <point x="1024" y="0" type="line"/>
      <point x="176" y="0" type="line"/>
      <point x="176" y="224" type="line"/>
    </contour>
    <contour>
      <point x="488" y="1205" type="line"/>
      <point x="712" y="1205" type="line"/>
      <point x="712" y="894" type="line"/>
      <point x="1024" y="894" type="line"/>
      <point x="1024" y="670" type="line"/>
      <point x="712" y="670" type="line"/>
      <point x="712" y="360" type="line"/>
      <point x="488" y="360" type="line"/>
      <point x="488" y="670" type="line"/>
      <point x="176" y="670" type="line"/>
      <point x="176" y="894" type="line"/>
      <point x="488" y="894" type="line"/>
    </contour>
  </outline>
</glyph>
<glyph name="paragraph" format="2">
  <advance width="1200"/>
  <unicode hex="00B6"/>
  <outline>
    <contour>
      <point x="289" y="1526" type="line" name=".hr02"/>
      <point x="1094" y="1526" type="line"/>
      <point x="1094" y="0" type="line"/>
      <point x="944" y="0" type="line"/>
      <point x="944" y="1303" type="line" name=".hr01"/>
      <point x="852" y="1303" type="line"/>
      <point x="852" y="0" type="line"/>
      <point x="612" y="0" type="line"/>
      <point x="612" y="496" type="line"/>
      <point x="503" y="431" type="line"/>
      <point x="285" y="431" type="line"/>
      <point x="106" y="698" type="line"/>
      <point x="106" y="1338" type="line"/>
    </contour>
  </outline>
</glyph>
<glyph name="periodcentered" format="2">
  <advance width="1200"/>
  <unicode hex="00B7"/>
  <outline>
    <contour>
      <point x="425" y="540" type="line"/>
      <point x="425" y="875" type="line"/>
      <point x="776" y="875" type="line"/>
      <point x="776" y="540" type="line"/>
    </contour>
  </outline>
</glyph>
<glyph name="ordmasculine" format="2">
  <advance width="1200"/>
  <unicode hex="00BA"/>
  <outline>
    <contour>
      <point x="336" y="1526" type="line"/>
      <point x="868" y="1526" type="line"/>
      <point x="1028" y="1287" type="line"/>
      <point x="1028" y="851" type="line"/>
      <point x="864" y="681" type="line"/>
      <point x="332" y="681" type="line"/>
      <point x="172" y="920" type="line"/>
      <point x="172" y="1356" type="line"/>
    </contour>
    <contour>
      <point x="381" y="954" type="line"/>
      <point x="436" y="875" type="line"/>
      <point x="787" y="875" type="line"/>
      <point x="819" y="908" type="line"/>
      <point x="819" y="1254" type="line"/>
      <point x="764" y="1332" type="line"/>
      <point x="414" y="1332" type="line"/>
      <point x="381" y="1296" type="line"/>
    </contour>
  </outline>
</glyph>
<glyph name="questiondown" format="2">
  <advance width="1200"/>
  <unicode hex="00BF"/>
  <outline>
    <contour>
      <point x="898" y="-334" type="line"/>
      <point x="302" y="-334" type="line"/>
      <point x="29" y="77" type="line"/>
      <point x="480" y="547" type="line"/>
      <point x="480" y="754" type="line"/>
      <point x="724" y="754" type="line"/>
      <point x="724" y="478" type="line"/>
      <point x="314" y="54" type="line"/>
      <point x="424" y="-108" type="line"/>
      <point x="803" y="-108" type="line"/>
      <point x="1048" y="141" type="line"/>
      <point x="1171" y="-50" type="line"/>
    </contour>
    <contour>
      <point x="743" y="1141" type="line" name=".hr01"/>
      <point x="743" y="878" type="line"/>
      <point x="457" y="878" type="line"/>
      <point x="457" y="1141" type="line"/>
    </contour>
  </outline>
</glyph>
<glyph name="AE" format="2">
  <advance width="1200"/>
  <unicode hex="00C6"/>
  <anchor x="701" y="1386" name="t.uni0342"/>
  <anchor x="600" y="0" name="m.uni0345"/>
  <outline>
    <contour>
      <point x="347" y="1432" type="line"/>
      <point x="1200" y="1432" type="line"/>
      <point x="1200" y="1208" type="line"/>
      <point x="800" y="1208" type="line"/>
      <point x="800" y="845" type="line"/>
      <point x="1080" y="845" type="line"/>
      <point x="1080" y="621" type="line"/>
      <point x="800" y="621" type="line"/>
      <point x="800" y="224" type="line"/>
      <point x="1200" y="224" type="line"/>
      <point x="1200" y="0" type="line"/>
      <point x="560" y="0" type="line"/>
      <point x="560" y="621" type="line"/>
      <point x="240" y="621" type="line"/>
      <point x="240" y="0" type="line"/>
      <point x="0" y="0" type="line"/>
      <point x="0" y="1073" type="line"/>
    </contour>
    <contour>
      <point x="240" y="1003" type="line"/>
      <point x="240" y="845" type="line"/>
      <point x="560" y="845" type="line"/>
      <point x="560" y="1208" type="line"/>
      <point x="438" y="1208" type="line"/>
    </contour>
  </outline>
</glyph>
<glyph name="Thorn" format="2">
  <advance width="1200"/>
  <unicode hex="00DE"/>
  <anchor x="600" y="1678" name="top"/>
  <anchor x="600" y="-150" name="bottom"/>
  <outline>
    <contour>
      <point x="120" y="1480" type="line"/>
      <point x="360" y="1480" type="line"/>
      <point x="360" y="1173" type="line"/>
      <point x="467" y="1238" type="line"/>
      <point x="899" y="1238" type="line"/>
      <point x="1080" y="969" type="line"/>
      <point x="1080" y="390" type="line"/>
      <point x="895" y="198" type="line"/>
      <point x="472" y="198" type="line"/>
      <point x="360" y="263" type="line"/>
      <point x="360" y="0" type="line"/>
      <point x="120" y="0" type="line"/>
    </contour>
    <contour>
      <point x="360" y="973" type="line"/>
      <point x="360" y="423" type="line"/>
      <point x="803" y="423" type="line"/>
      <point x="840" y="462" type="line"/>
      <point x="840" y="926" type="line"/>
      <point x="781" y="1013" type="line"/>
      <point x="400" y="1013" type="line"/>
    </contour>
  </outline>
</glyph>
<glyph name="germandbls" format="2">
  <advance width="1200"/>
  <unicode hex="00DF"/>
  <outline>
    <contour>
      <point x="462" y="1473" type="line"/>
      <point x="1081" y="1473" type="line"/>
      <point x="1081" y="1251" type="line"/>
      <point x="740" y="895" type="line" name=".hr01"/>
      <point x="845" y="895" type="line"/>
      <point x="1080" y="545" type="line"/>
      <point x="1080" y="198" type="line"/>
      <point x="888" y="0" type="line"/>
      <point x="600" y="0" type="line"/>
      <point x="600" y="224" type="line" name=".hr02"/>
      <point x="795" y="224" type="line"/>
      <point x="840" y="273" type="line"/>
      <point x="840" y="504" type="line"/>
      <point x="727" y="671" type="line"/>
      <point x="419" y="671" type="line"/>
      <point x="419" y="888" type="line"/>
      <point x="768" y="1249" type="line" name=".hr03"/>
      <point x="557" y="1249" type="line"/>
      <point x="360" y="1043" type="line"/>
      <point x="360" y="0" type="line"/>
      <point x="120" y="0" type="line"/>
      <point x="120" y="1118" type="line"/>
    </contour>
  </outline>
</glyph>
<glyph name="ae" format="2">
  <advance width="1200"/>
  <unicode hex="00E6"/>
  <anchor x="604" y="1062" name="t.uni0342"/>
  <outline>
    <contour>
      <point x="160" y="1136" type="line"/>
      <point x="581" y="1136" type="line"/>
      <point x="615" y="1086" type="line"/>
      <point x="663" y="1136" type="line"/>
      <point x="1021" y="1136" type="line"/>
      <point x="1211" y="855" type="line"/>
      <point x="850" y="480" type="line"/>
      <point x="720" y="480" type="line"/>
      <point x="720" y="310" type="line"/>
      <point x="778" y="224" type="line"/>
      <point x="922" y="224" type="line"/>
      <point x="1061" y="368" type="line"/>
      <point x="1189" y="180" type="line"/>
      <point x="1017" y="0" type="line"/>
      <point x="660" y="0" type="line"/>
      <point x="593" y="98" type="line"/>
      <point x="545" y="0" type="line"/>
      <point x="179" y="0" type="line"/>
      <point x="0" y="266" type="line"/>
      <point x="0" y="372" type="line"/>
      <point x="321" y="704" type="line"/>
      <point x="520" y="704" type="line"/>
      <point x="520" y="912" type="line"/>
      <point x="160" y="912" type="line"/>
    </contour>
    <contour>
      <point x="720" y="873" type="line"/>
      <point x="720" y="704" type="line"/>
      <point x="756" y="704" type="line"/>
      <point x="923" y="880" type="line"/>
      <point x="901" y="912" type="line"/>
      <point x="759" y="912" type="line"/>
    </contour>
    <contour>
      <point x="240" y="310" type="line"/>
      <point x="296" y="224" type="line"/>
      <point x="478" y="224" type="line"/>
      <point x="520" y="291" type="line"/>
      <point x="520" y="480" type="line"/>
      <point x="417" y="480" type="line"/>
      <point x="240" y="314" type="line"/>
    </contour>
  </outline>
</glyph>
<glyph name="eth" format="2">
  <advance width="1200"/>
  <unicode hex="00F0"/>
  <outline>
    <contour>
      <point x="285" y="1531" type="line"/>
      <point x="559" y="1438" type="line"/>
      <point x="701" y="1584" type="line"/>
      <point x="873" y="1417" type="line"/>
      <point x="758" y="1299" type="line"/>
      <point x="956" y="1092" type="line"/>
      <point x="1062" y="688" type="line"/>
      <point x="1062" y="484" type="line"/>
      <point x="934" y="104" type="line"/>
      <point x="601" y="-42" type="line"/>
      <point x="263" y="104" type="line"/>
      <point x="123" y="480" type="line"/>
      <point x="265" y="856" type="line"/>
      <point x="596" y="988" type="line"/>
      <point x="786" y="899" type="line"/>
      <point x="763" y="996" type="line"/>
      <point x="613" y="1143" type="line"/>
      <point x="490" y="1023" type="line"/>
      <point x="318" y="1190" type="line"/>
      <point x="400" y="1266" type="line"/>
      <point x="215" y="1325" type="line"/>
    </contour>
    <contour>
      <point x="438" y="270" type="line"/>
      <point x="600" y="196" type="line"/>
      <point x="751" y="270" type="line"/>
      <point x="838" y="524" type="line"/>
      <point x="822" y="665" type="line"/>
      <point x="588" y="775" type="line"/>
      <point x="452" y="721" type="line"/>
      <point x="349" y="480" type="line"/>
    </contour>
  </outline>
</glyph>
<glyph name="divide" format="2">
  <advance width="1200"/>
  <unicode hex="00F7"/>
  <outline>
    <contour>
      <point x="1000" y="737" type="line"/>
      <point x="1000" y="513" type="line"/>
      <point x="200" y="513" type="line"/>
      <point x="200" y="737" type="line"/>
    </contour>
    <contour>
      <point x="545" y="1150" type="line"/>
      <point x="656" y="1150" type="line"/>
      <point x="735" y="1073" type="line"/>
      <point x="735" y="959" type="line"/>
      <point x="656" y="883" type="line"/>
      <point x="545" y="883" type="line"/>
      <point x="468" y="959" type="line"/>
      <point x="468" y="1073" type="line"/>
    </contour>
    <contour>
      <point x="545" y="358" type="line"/>
      <point x="656" y="358" type="line"/>
      <point x="735" y="281" type="line"/>
      <point x="735" y="167" type="line"/>
      <point x="656" y="91" type="line"/>
      <point x="545" y="91" type="line"/>
      <point x="468" y="167" type="line"/>
      <point x="468" y="281" type="line"/>
    </contour>
  </outline>
</glyph>
<glyph name="oslash" format="2">
  <advance width="1200"/>
  <unicode hex="00F8"/>
  <anchor x="600" y="1246" name="top"/>
  <anchor x="600" y="-150" name="bottom"/>
  <outline>
    <component base="o"/>
    <contour>
      <point x="894" y="1465" type="line"/>
      <point x="1094" y="1370" type="line"/>
      <point x="288" y="-292" type="line"/>
      <point x="88" y="-197" type="line"/>
    </contour>
  </outline>
</glyph>
<glyph name="thorn" format="2">
  <advance width="1200"/>
  <unicode hex="00FE"/>
  <anchor x="600" y="1678" name="top"/>
  <anchor x="600" y="-150" name="bottom"/>
  <outline>
    <contour>
      <point x="120" y="1530" type="line"/>
      <point x="360" y="1530" type="line"/>
      <point x="360" y="1032" type="line"/>
      <point x="467" y="1097" type="line"/>
      <point x="899" y="1097" type="line"/>
      <point x="1080" y="828" type="line"/>
      <point x="1080" y="192" type="line"/>
      <point x="895" y="0" type="line"/>
      <point x="472" y="0" type="line"/>
      <point x="360" y="65" type="line"/>
      <point x="360" y="-420" type="line"/>
      <point x="120" y="-420" type="line"/>
    </contour>
    <contour>
      <point x="360" y="832" type="line"/>
      <point x="360" y="225" type="line"/>
      <point x="803" y="225" type="line"/>
      <point x="840" y="264" type="line"/>
      <point x="840" y="785" type="line"/>
      <point x="781" y="872" type="line"/>
      <point x="400" y="872" type="line"/>
    </contour>
  </outline>
</glyph>
<glyph name="dcaron" format="2">
  <advance width="1200"/>
  <unicode hex="010F"/>
  <anchor x="600" y="1678" name="top"/>
  <anchor x="600" y="-150" name="bottom"/>
  <anchor x="40" y="640" name="left"/>
  <anchor x="1000" y="790" name="right"/>
  <anchor x="804" y="1190" name="middleTop"/>
  <outline>
    <component base="commaaccentcomb" xOffset="411.48" yOffset="451.456"/>
    <contour>
      <point x="283" y="832" type="line"/>
      <point x="323" y="872" type="line"/>
      <point x="505" y="872" type="line"/>
      <point x="563" y="786" type="line"/>
      <point x="563" y="261" type="line"/>
      <point x="527" y="225" type="line"/>
      <point x="341" y="225" type="line"/>
      <point x="283" y="311" type="line"/>
    </contour>
    <contour>
      <point x="563" y="1032" type="line"/>
      <point x="455" y="1097" type="line"/>
      <point x="226" y="1097" type="line"/>
      <point x="43" y="905" type="line"/>
      <point x="43" y="268" type="line"/>
      <point x="226" y="0" type="line"/>
      <point x="455" y="0" type="line"/>
      <point x="563" y="65" type="line"/>
      <point x="563" y="0" type="line"/>
      <point x="803" y="0" type="line"/>
      <point x="803" y="1528" type="line"/>
      <point x="563" y="1528" type="line"/>
    </contour>
  </outline>
</glyph>
<glyph name="IJ" format="2">
  <advance width="1200"/>
  <unicode hex="0132"/>
  <outline>
    <contour>
      <point x="40" y="1434" type="line"/>
      <point x="421" y="1434" type="line"/>
      <point x="486" y="1343" type="line"/>
      <point x="573" y="1434" type="line"/>
      <point x="1160" y="1434" type="line"/>
      <point x="1160" y="1210" type="line"/>
      <point x="1080" y="1210" type="line"/>
      <point x="1080" y="24" type="line"/>
      <point x="737" y="-337" type="line"/>
      <point x="360" y="-337" type="line"/>
      <point x="360" y="-113" type="line"/>
      <point x="641" y="-113" type="line"/>
      <point x="840" y="98" type="line"/>
      <point x="840" y="1151" type="line"/>
      <point x="884" y="1210" type="line"/>
      <point x="666" y="1210" type="line"/>
      <point x="600" y="1141" type="line"/>
      <point x="600" y="0" type="line"/>
      <point x="360" y="0" type="line"/>
      <point x="360" y="1123" type="line"/>
      <point x="302" y="1210" type="line"/>
      <point x="40" y="1210" type="line"/>
    </contour>
  </outline>
</glyph>
<glyph name="ij" format="2">
  <advance width="1200"/>
  <unicode hex="0133"/>
  <outline>
    <contour>
      <point x="119.5" y="1217" type="line"/>
      <point x="119.5" y="1490" type="line"/>
      <point x="399.5" y="1490" type="line"/>
      <point x="399.5" y="1217" type="line"/>
    </contour>
    <contour>
      <point x="800.5" y="1217" type="line"/>
      <point x="800.5" y="1490" type="line"/>
      <point x="1080.5" y="1490" type="line"/>
      <point x="1080.5" y="1217" type="line"/>
    </contour>
    <contour>
      <point x="819.5" y="1096" type="line" name=".hr01"/>
      <point x="1059.5" y="1096" type="line"/>
      <point x="1059.5" y="-73" type="line"/>
      <point x="712.5" y="-432" type="line"/>
      <point x="300.5" y="-432" type="line"/>
      <point x="300.5" y="-208" type="line"/>
      <point x="619.5" y="-208" type="line"/>
      <point x="808.5" y="-33" type="line"/>
      <point x="808.5" y="-12" type="line"/>
      <point x="139.5" y="156" type="line"/>
      <point x="139.5" y="1095" type="line"/>
      <point x="379.5" y="1095" type="line"/>
      <point x="379.5" y="308" type="line"/>
      <point x="819.5" y="222" type="line"/>
    </contour>
  </outline>
</glyph>
<glyph name="eng" format="2">
  <advance width="1200"/>
  <unicode hex="014B"/>
  <anchor x="556" y="1260" name="top"/>
  <outline>
    <component base="n"/>
    <contour>
      <point x="1080" y="531" type="line"/>
      <point x="1080" y="0" type="line"/>
      <point x="730" y="-364" type="line"/>
      <point x="445" y="-364" type="line"/>
      <point x="445" y="-123" type="line"/>
      <point x="645" y="-123" type="line"/>
      <point x="841" y="79" type="line"/>
      <point x="841" y="392" type="line"/>
    </contour>
  </outline>
</glyph>
<glyph name="OE" format="2">
  <advance width="1200"/>
  <unicode hex="0152"/>
  <anchor x="600" y="1386" name="t.uni0342"/>
  <anchor x="600" y="0" name="m.uni0345"/>
  <outline>
    <contour>
      <point x="240" y="1168" type="line"/>
      <point x="240" y="311" type="line"/>
      <point x="298" y="224" type="line"/>
      <point x="523" y="224" type="line"/>
      <point x="560" y="264" type="line"/>
      <point x="560" y="1121" type="line"/>
      <point x="502" y="1208" type="line"/>
      <point x="277" y="1208" type="line"/>
    </contour>
    <contour>
      <point x="800" y="631" type="line"/>
      <point x="800" y="258" type="line"/>
      <point x="768" y="224" type="line"/>
      <point x="1200" y="224" type="line"/>
      <point x="1200" y="0" type="line"/>
      <point x="181" y="0" type="line"/>
      <point x="0" y="266" type="line"/>
      <point x="0" y="1242" type="line"/>
      <point x="184" y="1432" type="line"/>
      <point x="1200" y="1432" type="line"/>
      <point x="1200" y="1208" type="line"/>
      <point x="772" y="1208" type="line"/>
      <point x="800" y="1166" type="line"/>
      <point x="800" y="855" type="line"/>
      <point x="1080" y="855" type="line"/>
      <point x="1080" y="631" type="line"/>
    </contour>
  </outline>
</glyph>
<glyph name="oe" format="2">
  <advance width="1200"/>
  <unicode hex="0153"/>
  <outline>
    <contour>
      <point x="182" y="1096" type="line"/>
      <point x="547" y="1096" type="line"/>
      <point x="597" y="1021" type="line"/>
      <point x="669" y="1096" type="line"/>
      <point x="1022" y="1096" type="line"/>
      <point x="1212" y="814" type="line"/>
      <point x="851" y="441" type="line"/>
      <point x="726" y="441" type="line"/>
      <point x="726" y="310" type="line"/>
      <point x="784" y="224" type="line"/>
      <point x="923" y="224" type="line"/>
      <point x="1062" y="368" type="line"/>
      <point x="1190" y="180" type="line"/>
      <point x="1018" y="0" type="line"/>
      <point x="666" y="0" type="line"/>
      <point x="616" y="75" type="line"/>
      <point x="543" y="0" type="line"/>
      <point x="180" y="0" type="line"/>
      <point x="0" y="267" type="line"/>
      <point x="0" y="907" type="line"/>
    </contour>
    <contour>
      <point x="240" y="310" type="line"/>
      <point x="299" y="224" type="line"/>
      <point x="449" y="224" type="line"/>
      <point x="486" y="262" type="line"/>
      <point x="486" y="787" type="line"/>
      <point x="428" y="872" type="line" name=".hr01"/>
      <point x="278" y="872" type="line"/>
      <point x="240" y="832" type="line"/>
    </contour>
    <contour>
      <point x="726" y="833" type="line"/>
      <point x="726" y="665" type="line"/>
      <point x="757" y="665" type="line"/>
      <point x="924" y="840" type="line"/>
      <point x="902" y="872" type="line"/>
      <point x="765" y="872" type="line"/>
    </contour>
  </outline>
</glyph>
<glyph name="tcaron" format="2">
  <advance width="1200"/>
  <unicode hex="0165"/>
  <anchor x="641" y="-150" name="bottom"/>
  <anchor x="565" y="1638" name="top"/>
  <anchor x="559" y="500" name="middleTop"/>
  <outline>
    <component base="caron.salt" xOffset="349.51" yOffset="-246"/>
    <contour>
      <point x="319" y="1488" type="line"/>
      <point x="319" y="1097" type="line"/>
      <point x="160" y="1097" type="line"/>
      <point x="160" y="872" type="line"/>
      <point x="319" y="872" type="line"/>
      <point x="319" y="263" type="line"/>
      <point x="498" y="0" type="line"/>
      <point x="881" y="0" type="line"/>
      <point x="1050" y="181" type="line"/>
      <point x="924" y="366" type="line"/>
      <point x="782" y="225" type="line"/>
      <point x="616" y="225" type="line"/>
      <point x="559" y="311" type="line"/>
      <point x="559" y="872" type="line"/>
      <point x="700.255" y="872" type="line"/>
      <point x="700.255" y="1097" type="line"/>
      <point x="559" y="1097" type="line"/>
      <point x="559" y="1488" type="line"/>
    </contour>
  </outline>
</glyph>
<glyph name="longs" format="2">
  <advance width="1200"/>
  <unicode hex="017F"/>
  <anchor x="600" y="1697" name="top"/>
  <anchor x="400" y="-150" name="bottom"/>
  <outline>
    <contour>
      <point x="485" y="1541" type="line"/>
      <point x="840" y="1541" type="line"/>
      <point x="840" y="1317" type="line"/>
      <point x="584" y="1317" type="line"/>
      <point x="520" y="1252" type="line"/>
      <point x="520" y="0" type="line"/>
      <point x="280" y="0" type="line"/>
      <point x="280" y="1330" type="line"/>
    </contour>
  </outline>
</glyph>
<glyph name="dotlessj" format="2">
  <advance width="1200"/>
  <unicode hex="0237"/>
  <anchor x="672" y="1260" name="top"/>
  <anchor x="523" y="-590" name="bottom"/>
  <outline>
    <contour>
      <point x="435" y="1066" type="line"/>
      <point x="435" y="848" type="line"/>
      <point x="657" y="848" type="line"/>
      <point x="716" y="760" type="line"/>
      <point x="716" y="20" type="line"/>
      <point x="514" y="-188" type="line"/>
      <point x="164" y="-188" type="line"/>
      <point x="164" y="-409" type="line"/>
      <point x="605" y="-409" type="line"/>
      <point x="950" y="-51" type="line"/>
      <point x="950" y="802" type="line"/>
      <point x="773" y="1066" type="line"/>
    </contour>
  </outline>
</glyph>
<glyph name="uni02C9" format="2">
  <advance width="1200"/>
  <unicode hex="02C9"/>
  <outline>
    <contour>
      <point x="897" y="1294" type="line"/>
      <point x="301" y="1294" type="line"/>
      <point x="301" y="1475" type="line"/>
      <point x="897" y="1475" type="line"/>
    </contour>
  </outline>
</glyph>
<glyph name="breve" format="2">
  <advance width="1200"/>
  <unicode hex="02D8"/>
  <anchor x="600" y="1300" name="_top"/>
  <anchor x="600" y="1684" name="_bottom"/>
  <outline>
    <contour>
      <point x="200" y="1523" type="line"/>
      <point x="423" y="1300" type="line"/>
      <point x="777" y="1300" type="line"/>
      <point x="1000" y="1523" type="line"/>
      <point x="1000" y="1685" type="line"/>
      <point x="761" y="1685" type="line"/>
      <point x="761" y="1500" type="line"/>
      <point x="440" y="1500" type="line"/>
      <point x="440" y="1685" type="line"/>
      <point x="200" y="1685" type="line"/>
    </contour>
  </outline>
</glyph>
<glyph name="ogonek" format="2">
  <advance width="1200"/>
  <unicode hex="02DB"/>
  <anchor x="600" y="0" name="_bottom"/>
  <anchor x="601" y="-505" name="bottom"/>
  <outline>
    <contour>
      <point x="799" y="-251.358" type="line"/>
      <point x="799" y="-423.358" type="line"/>
      <point x="560" y="-423.358" type="line"/>
      <point x="401" y="-291.358" type="line"/>
      <point x="401" y="-169.358" type="line"/>
      <point x="560" y="-47.3582" type="line"/>
      <point x="560" y="24.6418" type="line"/>
      <point x="800" y="24.6418" type="line"/>
      <point x="800" y="-47.3582" type="line"/>
      <point x="600" y="-171.358" type="line"/>
      <point x="600" y="-251.358" type="line"/>
    </contour>
  </outline>
</glyph>
<glyph name="acutecomb" format="2">
  <advance width="1200"/>
  <unicode hex="0301"/>
  <anchor x="600" y="1242" name="_top"/>
  <anchor x="600" y="1692" name="top"/>
  <outline>
    <contour>
      <point x="773" y="1625" type="line"/>
      <point x="878" y="1435" type="line"/>
      <point x="403" y="1240" type="line"/>
      <point x="322" y="1375" type="line"/>
    </contour>
  </outline>
</glyph>
<glyph name="tildecomb" format="2">
  <advance width="1200"/>
  <unicode hex="0303"/>
  <anchor x="603" y="1240" name="_top"/>
  <anchor x="603" y="1540" name="_bottom"/>
  <outline>
    <contour>
      <point x="946" y="1548" type="line"/>
      <point x="1040" y="1388" type="line"/>
      <point x="798" y="1243" type="line"/>
      <point x="437" y="1345" type="line"/>
      <point x="260" y="1237" type="line"/>
      <point x="166" y="1397" type="line"/>
      <point x="408" y="1542" type="line"/>
      <point x="774" y="1444" type="line"/>
    </contour>
  </outline>
</glyph>
<glyph name="macroncomb" format="2">
  <advance width="1200"/>
  <unicode hex="0304"/>
  <anchor x="603" y="1190" name="_top"/>
  <anchor x="603" y="1511" name="top"/>
  <outline>
    <contour>
      <point x="903" y="1187" type="line"/>
      <point x="903" y="1411" type="line"/>
      <point x="303" y="1411" type="line"/>
      <point x="303" y="1187" type="line"/>
    </contour>
  </outline>
</glyph>
<glyph name="overlinecomb" format="2">
  <advance width="1200"/>
  <unicode hex="0305"/>
  <anchor x="602" y="1251" name="_top"/>
  <anchor x="602" y="1430" name="_bottom"/>
  <outline>
    <contour>
      <point x="1060" y="1248" type="line"/>
      <point x="143" y="1248" type="line"/>
      <point x="143" y="1429" type="line"/>
      <point x="1060" y="1429" type="line"/>
    </contour>
  </outline>
</glyph>
<glyph name="brevecomb" format="2">
  <advance width="1200"/>
  <unicode hex="0306"/>
  <anchor x="600" y="1300" name="_top"/>
  <anchor x="600" y="1852" name="top"/>
  <outline>
    <contour>
      <point x="200" y="1523" type="line"/>
      <point x="423" y="1300" type="line"/>
      <point x="776.067" y="1300" type="line"/>
      <point x="1000" y="1523" type="line"/>
      <point x="1000" y="1685" type="line"/>
      <point x="760" y="1685" type="line"/>
      <point x="760" y="1500" type="line"/>
      <point x="440" y="1500" type="line"/>
      <point x="440" y="1685" type="line"/>
      <point x="200" y="1685" type="line"/>
    </contour>
  </outline>
</glyph>
<glyph name="dotaccentcomb" format="2">
  <advance width="1200"/>
  <unicode hex="0307"/>
  <anchor x="600" y="1300" name="_top"/>
  <anchor x="600" y="1570" name="_bottom"/>
  <anchor x="735" y="1436" name="_left"/>
  <anchor x="456" y="1436" name="_right"/>
  <outline>
    <contour>
      <point x="460" y="1300" type="line"/>
      <point x="739" y="1300" type="line"/>
      <point x="739" y="1572" type="line"/>
      <point x="460" y="1572" type="line"/>
    </contour>
  </outline>
</glyph>
<glyph name="dieresiscomb" format="2">
  <advance width="1200"/>
  <unicode hex="0308"/>
  <anchor x="600" y="1300" name="_top"/>
  <anchor x="603" y="1699" name="top"/>
  <outline>
    <contour>
      <point x="720" y="1300" type="line"/>
      <point x="991" y="1300" type="line"/>
      <point x="991" y="1564" type="line"/>
      <point x="720" y="1564" type="line"/>
    </contour>
    <contour>
      <point x="200" y="1300" type="line"/>
      <point x="479" y="1300" type="line"/>
      <point x="479" y="1572" type="line"/>
      <point x="200" y="1572" type="line"/>
    </contour>
  </outline>
</glyph>
<glyph name="hookabovecomb" format="2">
  <advance width="1200"/>
  <unicode hex="0309"/>
  <anchor x="600" y="1010" name="_top"/>
  <anchor x="600" y="1690" name="_bottom"/>
  <outline>
    <contour>
      <point x="401" y="1518" type="line"/>
      <point x="600" y="1518" type="line"/>
      <point x="600" y="1328" type="line"/>
      <point x="440" y="1204" type="line"/>
      <point x="440" y="1011" type="line"/>
      <point x="640" y="1011" type="line"/>
      <point x="640" y="1204" type="line"/>
      <point x="799" y="1326" type="line"/>
      <point x="799" y="1558" type="line"/>
      <point x="640" y="1690" type="line"/>
      <point x="401" y="1690" type="line"/>
    </contour>
  </outline>
</glyph>
<glyph name="ringcomb" format="2">
  <advance width="1200"/>
  <unicode hex="030A"/>
  <anchor x="602" y="1119" name="_top"/>
  <anchor x="602" y="1683" name="top"/>
  <outline>
    <contour>
      <point x="503" y="1583" type="line"/>
      <point x="696" y="1583" type="line"/>
      <point x="834" y="1448" type="line"/>
      <point x="834" y="1253" type="line"/>
      <point x="696" y="1119" type="line"/>
      <point x="503" y="1119" type="line"/>
      <point x="369" y="1253" type="line"/>
      <point x="369" y="1448" type="line"/>
    </contour>
    <contour>
      <point x="564" y="1440" type="line"/>
      <point x="512" y="1389" type="line"/>
      <point x="512" y="1313" type="line"/>
      <point x="564" y="1262" type="line"/>
      <point x="638" y="1262" type="line"/>
      <point x="691" y="1313" type="line"/>
      <point x="691" y="1389" type="line"/>
      <point x="638" y="1440" type="line"/>
    </contour>
  </outline>
</glyph>
<glyph name="hungarumlautcomb" format="2">
  <advance width="1200"/>
  <unicode hex="030B"/>
  <anchor x="602" y="1160" name="_top"/>
  <anchor x="602" y="1722" name="top"/>
  <outline>
    <contour>
      <point x="236" y="1239" type="line"/>
      <point x="410" y="1645" type="line"/>
      <point x="615" y="1547" type="line"/>
      <point x="397" y="1160" type="line"/>
    </contour>
    <contour>
      <point x="563" y="1246" type="line"/>
      <point x="767" y="1652" type="line"/>
      <point x="968" y="1543" type="line"/>
      <point x="718" y="1160" type="line"/>
    </contour>
  </outline>
</glyph>
<glyph name="caroncomb" format="2">
  <advance width="1200"/>
  <unicode hex="030C"/>
  <anchor x="600" y="1150" name="_top"/>
  <anchor x="600" y="1653" name="top"/>
  <outline>
    <contour>
      <point x="659" y="1152" type="line"/>
      <point x="969" y="1388" type="line"/>
      <point x="856" y="1518" type="line"/>
      <point x="600" y="1355" type="line"/>
      <point x="346" y="1518" type="line"/>
      <point x="231" y="1388" type="line"/>
      <point x="543" y="1152" type="line"/>
    </contour>
  </outline>
</glyph>
<glyph name="vlinecomb" format="2">
  <advance width="1200"/>
  <unicode hex="030D"/>
  <anchor x="600" y="1680" name="_bottom"/>
  <anchor x="600" y="1250" name="_top"/>
  <outline>
    <contour>
      <point x="480" y="1250" type="line"/>
      <point x="720" y="1250" type="line"/>
      <point x="720" y="1680" type="line"/>
      <point x="480" y="1680" type="line"/>
    </contour>
  </outline>
</glyph>
<glyph name="dblgravecomb" format="2">
  <advance width="1200"/>
  <unicode hex="030F"/>
  <anchor x="573" y="1240" name="_top"/>
  <anchor x="603" y="1849" name="top"/>
  <outline>
    <contour>
      <point x="774" y="1762" type="line"/>
      <point x="575" y="1674" type="line"/>
      <point x="834" y="1231" type="line"/>
      <point x="980" y="1289" type="line"/>
    </contour>
    <contour>
      <point x="351" y="1762" type="line"/>
      <point x="166" y="1649" type="line"/>
      <point x="479" y="1243" type="line"/>
      <point x="617" y="1320" type="line"/>
    </contour>
  </outline>
</glyph>
<glyph name="breveinvertedcomb" format="2">
  <advance width="1200"/>
  <unicode hex="0311"/>
  <anchor x="600" y="1300" name="_top"/>
  <anchor x="600" y="1785" name="top"/>
  <outline>
    <contour>
      <point x="200" y="1462" type="line"/>
      <point x="423" y="1685" type="line"/>
      <point x="776" y="1685" type="line"/>
      <point x="1000" y="1462" type="line"/>
      <point x="1000" y="1300" type="line"/>
      <point x="760" y="1300" type="line"/>
      <point x="760" y="1485" type="line"/>
      <point x="440" y="1485" type="line"/>
      <point x="440" y="1300" type="line"/>
      <point x="200" y="1300" type="line"/>
    </contour>
  </outline>
</glyph>
<glyph name="commaturnedabovecomb" format="2">
  <advance width="1200"/>
  <unicode hex="0312"/>
  <anchor x="600" y="1160" name="_top"/>
  <anchor x="600" y="1650" name="_bottom"/>
  <outline>
    <contour>
      <point x="784" y="1566" type="line"/>
      <point x="580" y="1160" type="line"/>
      <point x="379" y="1269" type="line"/>
      <point x="629" y="1652" type="line"/>
    </contour>
  </outline>
</glyph>
<glyph name="commaabovecomb" format="2">
  <advance width="1200"/>
  <unicode hex="0313"/>
  <anchor x="600" y="1160" name="_top"/>
  <anchor x="600" y="1750" name="top"/>
  <outline>
    <contour>
      <point x="385" y="1245" type="line"/>
      <point x="589" y="1652" type="line"/>
      <point x="790" y="1542" type="line"/>
      <point x="540" y="1160" type="line"/>
    </contour>
  </outline>
</glyph>
<glyph name="commareversedabovecomb" format="2">
  <advance width="1200"/>
  <unicode hex="0314"/>
  <anchor x="600" y="1160" name="_top"/>
  <anchor x="600" y="1752" name="top"/>
  <outline>
    <contour>
      <point x="815" y="1245" type="line"/>
      <point x="660" y="1160" type="line"/>
      <point x="410" y="1542" type="line"/>
      <point x="611" y="1652" type="line"/>
    </contour>
  </outline>
</glyph>
<glyph name="commaaboverightcomb" format="2">
  <advance width="1200"/>
  <unicode hex="0315"/>
  <anchor x="600" y="1160" name="_top"/>
  <anchor x="600" y="1752" name="top"/>
  <outline>
    <contour>
      <point x="394" y="1246" type="line"/>
      <point x="598" y="1652" type="line"/>
      <point x="800" y="1543" type="line"/>
      <point x="550" y="1160" type="line"/>
    </contour>
  </outline>
</glyph>
<glyph name="gravebelowcomb" format="2">
  <advance width="1200"/>
  <unicode hex="0316"/>
  <anchor x="600" y="-591" name="bottom"/>
  <anchor x="600" y="-160" name="_bottom"/>
  <outline>
    <contour>
      <point x="427" y="-161" type="line"/>
      <point x="322" y="-351" type="line"/>
      <point x="797" y="-546" type="line"/>
      <point x="878" y="-411" type="line"/>
    </contour>
  </outline>
</glyph>
<glyph name="acutebelowcomb" format="2">
  <advance width="1200"/>
  <unicode hex="0317"/>
  <anchor x="600" y="-550" name="_top"/>
  <anchor x="600" y="-160" name="_bottom"/>
  <outline>
    <contour>
      <point x="756" y="-161" type="line"/>
      <point x="861" y="-351" type="line"/>
      <point x="386" y="-546" type="line"/>
      <point x="305" y="-411" type="line"/>
    </contour>
  </outline>
</glyph>
<glyph name="commaaccentcomb" format="2">
  <advance width="1200"/>
  <unicode hex="0326"/>
  <anchor x="600" y="453" name="_top"/>
  <anchor x="600" y="1201" name="top"/>
  <outline>
    <contour>
      <point x="456" y="1077" type="line"/>
      <point x="742" y="1077" type="line"/>
      <point x="742" y="653" type="line"/>
      <point x="557" y="454" type="line"/>
      <point x="479" y="567" type="line"/>
      <point x="610" y="703" type="line" name=".hr01"/>
      <point x="610" y="790" type="line"/>
      <point x="456" y="790" type="line" name=".hr02"/>
    </contour>
  </outline>
</glyph>
<glyph name="dbllowlinecomb" format="2">
  <advance width="1200"/>
  <unicode hex="0333"/>
  <anchor x="600" y="-204" name="_bottom"/>
  <anchor x="603" y="-827" name="bottom"/>
  <outline>
    <contour>
      <point x="980" y="-427.825" type="line"/>
      <point x="980" y="-203.825" type="line"/>
      <point x="220" y="-203.825" type="line"/>
      <point x="220" y="-427.825" type="line"/>
    </contour>
    <contour>
      <point x="980" y="-727.302" type="line"/>
      <point x="980" y="-503.302" type="line"/>
      <point x="220" y="-503.302" type="line"/>
      <point x="220" y="-727.302" type="line"/>
    </contour>
  </outline>
</glyph>
<glyph name="strokeshortcomb" format="2">
  <advance width="1200"/>
  <unicode hex="0335"/>
  <outline>
    <contour>
      <point x="980" y="599" type="line"/>
      <point x="980" y="823" type="line"/>
      <point x="220" y="823" type="line"/>
      <point x="220" y="599" type="line"/>
    </contour>
  </outline>
</glyph>
<glyph name="strokelongcomb" format="2">
  <advance width="1200"/>
  <unicode hex="0336"/>
  <outline>
    <contour>
      <point x="39.8065" y="579.514" type="line"/>
      <point x="1159.99" y="579.514" type="line"/>
      <point x="1159.99" y="819.514" type="line"/>
      <point x="39.8065" y="819.514" type="line"/>
    </contour>
  </outline>
</glyph>
<glyph name="pi" format="2">
  <advance width="1200"/>
  <unicode hex="03C0"/>
  <anchor x="600" y="-150" name="bottom"/>
  <anchor x="600" y="1310" name="top"/>
  <outline>
    <contour>
      <point x="1185" y="1100" type="line"/>
      <point x="1185" y="876" type="line"/>
      <point x="1003" y="876" type="line"/>
      <point x="1003" y="319" type="line"/>
      <point x="1151" y="0" type="line"/>
      <point x="918" y="0" type="line"/>
      <point x="779" y="311" type="line"/>
      <point x="779" y="876" type="line"/>
      <point x="424" y="876" type="line"/>
      <point x="424" y="0" type="line"/>
      <point x="200" y="0" type="line"/>
      <point x="200" y="876" type="line"/>
      <point x="15" y="876" type="line"/>
      <point x="15" y="1100" type="line"/>
    </contour>
  </outline>
</glyph>
<glyph name="Germandbls" format="2">
  <advance width="1200"/>
  <unicode hex="1E9E"/>
  <outline>
    <contour>
      <point x="462" y="1473" type="line"/>
      <point x="1081" y="1473" type="line"/>
      <point x="1081" y="1251" type="line"/>
      <point x="740" y="895" type="line"/>
      <point x="845" y="895" type="line"/>
      <point x="1080" y="545" type="line"/>
      <point x="1080" y="198" type="line"/>
      <point x="888" y="0" type="line"/>
      <point x="570" y="0" type="line"/>
      <point x="570" y="224" type="line"/>
      <point x="795" y="224" type="line"/>
      <point x="840" y="273" type="line"/>
      <point x="840" y="504" type="line"/>
      <point x="727" y="671" type="line"/>
      <point x="419" y="671" type="line"/>
      <point x="419" y="888" type="line"/>
      <point x="768" y="1249" type="line"/>
      <point x="557" y="1249" type="line"/>
      <point x="360" y="1043" type="line"/>
      <point x="360" y="0" type="line"/>
      <point x="120" y="0" type="line"/>
      <point x="120" y="1118" type="line"/>
    </contour>
  </outline>
</glyph>
<glyph name="quoteright" format="2">
  <advance width="1200"/>
  <unicode hex="2019"/>
  <anchor x="480" y="1450" name="left"/>
  <anchor x="720" y="1450" name="right"/>
  <outline>
    <contour>
      <point x="480" y="1632" type="line"/>
      <point x="720" y="1632" type="line"/>
      <point x="720" y="1270" type="line"/>
      <point x="548" y="1092" type="line"/>
      <point x="467" y="1216" type="line"/>
      <point x="560" y="1314" type="line"/>
      <point x="560" y="1367" type="line"/>
      <point x="480" y="1367" type="line"/>
    </contour>
  </outline>
</glyph>
<glyph name="quotedblleft" format="2">
  <advance width="1200"/>
  <unicode hex="201C"/>
  <outline>
    <contour>
      <point x="402" y="1757" type="line"/>
      <point x="524" y="1568" type="line"/>
      <point x="420" y="1458" type="line"/>
      <point x="420" y="1399" type="line"/>
      <point x="540" y="1399" type="line"/>
      <point x="540" y="1056" type="line"/>
      <point x="180" y="1056" type="line"/>
      <point x="180" y="1528" type="line"/>
    </contour>
    <contour>
      <point x="882" y="1757" type="line"/>
      <point x="1004" y="1568" type="line"/>
      <point x="900" y="1458" type="line"/>
      <point x="900" y="1399" type="line"/>
      <point x="1020" y="1399" type="line"/>
      <point x="1020" y="1056" type="line"/>
      <point x="660" y="1056" type="line"/>
      <point x="660" y="1528" type="line"/>
    </contour>
  </outline>
</glyph>
<glyph name="quotedblbase" format="2">
  <advance width="1200"/>
  <unicode hex="201E"/>
  <outline>
    <contour>
      <point x="180" y="345" type="line"/>
      <point x="540" y="345" type="line"/>
      <point x="540" y="-133" type="line"/>
      <point x="322" y="-359" type="line"/>
      <point x="196" y="-166" type="line"/>
      <point x="300" y="-57" type="line"/>
      <point x="300" y="0" type="line"/>
      <point x="180" y="0" type="line"/>
    </contour>
    <contour>
      <point x="660" y="345" type="line"/>
      <point x="1020" y="345" type="line"/>
      <point x="1020" y="-133" type="line"/>
      <point x="802" y="-359" type="line"/>
      <point x="676" y="-166" type="line"/>
      <point x="780" y="-57" type="line"/>
      <point x="780" y="0" type="line"/>
      <point x="660" y="0" type="line"/>
    </contour>
  </outline>
</glyph>
<glyph name="guilsinglleft" format="2">
  <advance width="1200"/>
  <unicode hex="2039"/>
  <outline>
    <contour>
      <point x="860" y="163" type="line"/>
      <point x="724" y="81" type="line"/>
      <point x="356" y="527" type="line"/>
      <point x="356" y="653" type="line"/>
      <point x="724" y="1103" type="line"/>
      <point x="860" y="1019" type="line"/>
      <point x="582" y="591" type="line"/>
    </contour>
  </outline>
</glyph>
<glyph name="fraction" format="2">
  <advance width="1200"/>
  <unicode hex="2044"/>
  <outline>
    <contour>
      <point x="78" y="321" type="line"/>
      <point x="-19" y="484" type="line"/>
      <point x="1124" y="1031" type="line"/>
      <point x="1218" y="868" type="line"/>
    </contour>
  </outline>
</glyph>
<glyph name="Euro" format="2">
  <advance width="1200"/>
  <unicode hex="20AC"/>
  <outline>
    <contour>
      <point x="360" y="1168" type="line"/>
      <point x="360" y="960" type="line"/>
      <point x="820" y="960" type="line"/>
      <point x="820" y="736" type="line"/>
      <point x="360" y="736" type="line"/>
      <point x="360" y="672" type="line"/>
      <point x="820" y="672" type="line"/>
      <point x="820" y="448" type="line"/>
      <point x="360" y="448" type="line"/>
      <point x="360" y="311" type="line"/>
      <point x="418" y="224" type="line"/>
      <point x="804" y="224" type="line"/>
      <point x="941" y="371" type="line"/>
      <point x="1073" y="180" type="line"/>
      <point x="897" y="0" type="line"/>
      <point x="299" y="0" type="line"/>
      <point x="120" y="266" type="line"/>
      <point x="120" y="448" type="line"/>
      <point x="40" y="448" type="line"/>
      <point x="40" y="672" type="line"/>
      <point x="120" y="672" type="line"/>
      <point x="120" y="736" type="line"/>
      <point x="40" y="736" type="line"/>
      <point x="40" y="960" type="line"/>
      <point x="120" y="960" type="line"/>
      <point x="120" y="1243" type="line"/>
      <point x="304" y="1432" type="line"/>
      <point x="901" y="1432" type="line"/>
      <point x="1063" y="1193" type="line"/>
      <point x="905" y="1028" type="line"/>
      <point x="783" y="1208" type="line"/>
      <point x="397" y="1208" type="line"/>
    </contour>
  </outline>
</glyph>
<glyph name="trademark" format="2">
  <advance width="1200"/>
  <unicode hex="2122"/>
  <outline>
    <contour>
      <point x="19" y="1387" type="line"/>
      <point x="686" y="1387" type="line"/>
      <point x="686" y="1279" type="line"/>
      <point x="796" y="1114" type="line"/>
      <point x="1061" y="1387" type="line"/>
      <point x="1181" y="1387" type="line"/>
      <point x="1181" y="696" type="line"/>
      <point x="1061" y="696" type="line"/>
      <point x="1061" y="1230" type="line"/>
      <point x="913" y="1076" type="line"/>
      <point x="913" y="939" type="line"/>
      <point x="784" y="939" type="line"/>
      <point x="784" y="942" type="line"/>
      <point x="641" y="1155" type="line"/>
      <point x="641" y="696" type="line"/>
      <point x="521" y="696" type="line"/>
      <point x="521" y="1279" type="line"/>
      <point x="241" y="1279" type="line"/>
      <point x="356" y="1209" type="line"/>
      <point x="356" y="696" type="line"/>
      <point x="236" y="696" type="line"/>
      <point x="236" y="1193" type="line"/>
      <point x="179" y="1279" type="line"/>
      <point x="19" y="1279" type="line"/>
    </contour>
  </outline>
</glyph>
<glyph name="summation" format="2">
  <advance width="1200"/>
  <unicode hex="2211"/>
  <outline>
    <contour>
      <point x="1066" y="1669" type="line"/>
      <point x="1066" y="1470" type="line"/>
      <point x="394" y="1470" type="line"/>
      <point x="835" y="771" type="line"/>
      <point x="835" y="609" type="line"/>
      <point x="395" y="-71" type="line"/>
      <point x="1066" y="-71" type="line"/>
      <point x="1066" y="-270" type="line"/>
      <point x="127" y="-270" type="line"/>
      <point x="127" y="-95" type="line"/>
      <point x="636" y="686" type="line"/>
      <point x="127" y="1493" type="line"/>
      <point x="127" y="1669" type="line"/>
    </contour>
  </outline>
</glyph>
<glyph name="approxequal" format="2">
  <advance width="1200"/>
  <unicode hex="2248"/>
  <outline>
    <contour>
      <point x="950" y="1020" type="line"/>
      <point x="768" y="910" type="line"/>
      <point x="402" y="1008" type="line"/>
      <point x="135" y="849" type="line"/>
      <point x="250" y="655" type="line"/>
      <point x="437" y="769" type="line"/>
      <point x="798" y="667" type="line"/>
      <point x="1065" y="826" type="line"/>
    </contour>
    <contour>
      <point x="950" y="628" type="line"/>
      <point x="768" y="518" type="line"/>
      <point x="402" y="616" type="line"/>
      <point x="135" y="457" type="line"/>
      <point x="250" y="263" type="line"/>
      <point x="437" y="377" type="line"/>
      <point x="798" y="275" type="line"/>
      <point x="1065" y="434" type="line"/>
    </contour>
  </outline>
</glyph>
<glyph name="notequal" format="2">
  <advance width="1200"/>
  <unicode hex="2260"/>
  <outline>
    <contour>
      <point x="1010" y="918" type="line"/>
      <point x="1010" y="694" type="line"/>
      <point x="732" y="694" type="line"/>
      <point x="661" y="550" type="line"/>
      <point x="1010" y="550" type="line"/>
      <point x="1010" y="326" type="line"/>
      <point x="552" y="326" type="line"/>
      <point x="392" y="-3" type="line"/>
      <point x="191" y="92" type="line"/>
      <point x="305" y="326" type="line"/>
      <point x="190" y="326" type="line"/>
      <point x="190" y="550" type="line"/>
      <point x="414" y="550" type="line"/>
      <point x="484" y="694" type="line"/>
      <point x="190" y="694" type="line"/>
      <point x="190" y="918" type="line"/>
      <point x="594" y="918" type="line"/>
      <point x="766" y="1272" type="line"/>
      <point x="967" y="1177" type="line"/>
      <point x="841" y="918" type="line"/>
    </contour>
  </outline>
</glyph>
<glyph name="lighthorz" format="2">
  <advance width="1200"/>
  <unicode hex="2500"/>
  <outline>
    <contour>
      <point x="1210" y="780" type="line"/>
      <point x="1210" y="620" type="line"/>
      <point x="-10" y="620" type="line"/>
      <point x="-10" y="780" type="line"/>
    </contour>
  </outline>
</glyph>
<glyph name="lighttrpldashhorz" format="2">
  <advance width="1200"/>
  <unicode hex="2504"/>
  <outline>
    <contour>
      <point x="320" y="780" type="line"/>
      <point x="320" y="620" type="line"/>
      <point x="80" y="620" type="line"/>
      <point x="80" y="780" type="line"/>
    </contour>
    <contour>
      <point x="720" y="780" type="line"/>
      <point x="720" y="620" type="line"/>
      <point x="480" y="620" type="line"/>
      <point x="480" y="780" type="line"/>
    </contour>
    <contour>
      <point x="1120" y="780" type="line"/>
      <point x="1120" y="620" type="line"/>
      <point x="880" y="620" type="line"/>
      <point x="880" y="780" type="line"/>
    </contour>
  </outline>
</glyph>
<glyph name="lightquaddashhorz" format="2">
  <advance width="1200"/>
  <unicode hex="2508"/>
  <outline>
    <contour>
      <point x="375" y="780" type="line"/>
      <point x="525" y="780" type="line"/>
      <point x="525" y="620" type="line"/>
      <point x="375" y="620" type="line"/>
    </contour>
    <contour>
      <point x="675" y="780" type="line"/>
      <point x="825" y="780" type="line"/>
      <point x="825" y="620" type="line"/>
      <point x="675" y="620" type="line"/>
    </contour>
    <contour>
      <point x="75" y="780" type="line"/>
      <point x="225" y="780" type="line"/>
      <point x="225" y="620" type="line"/>
      <point x="75" y="620" type="line"/>
    </contour>
    <contour>
      <point x="975" y="780" type="line"/>
      <point x="1125" y="780" type="line"/>
      <point x="1125" y="620" type="line"/>
      <point x="975" y="620" type="line"/>
    </contour>
  </outline>
</glyph>
<glyph name="lightdnleft" format="2">
  <advance width="1200"/>
  <unicode hex="2510"/>
  <outline>
    <contour>
      <point x="680" y="780" type="line"/>
      <point x="680" y="-1000" type="line"/>
      <point x="520" y="-1000" type="line"/>
      <point x="520" y="620" type="line"/>
      <point x="-10" y="620" type="line"/>
      <point x="-10" y="780" type="line"/>
    </contour>
  </outline>
</glyph>
<glyph name="heavyupright" format="2">
  <advance width="1200"/>
  <unicode hex="2517"/>
  <outline>
    <contour>
      <point x="840" y="2000" type="line"/>
      <point x="840" y="940" type="line"/>
      <point x="1210" y="940" type="line"/>
      <point x="1210" y="460" type="line"/>
      <point x="360" y="460" type="line"/>
      <point x="360" y="2000" type="line"/>
    </contour>
  </outline>
</glyph>
<glyph name="lightupleft" format="2">
  <advance width="1200"/>
  <unicode hex="2518"/>
  <outline>
    <contour>
      <point x="680" y="2000" type="line"/>
      <point x="680" y="620" type="line"/>
      <point x="-10" y="620" type="line"/>
      <point x="-10" y="780" type="line"/>
      <point x="520" y="780" type="line"/>
      <point x="520" y="2000" type="line"/>
    </contour>
  </outline>
</glyph>
<glyph name="lightvertright" format="2">
  <advance width="1200"/>
  <unicode hex="251C"/>
  <outline>
    <contour>
      <point x="680" y="2000" type="line"/>
      <point x="680" y="780" type="line"/>
      <point x="1210" y="780" type="line"/>
      <point x="1210" y="620" type="line"/>
      <point x="680" y="620" type="line"/>
      <point x="680" y="-1000" type="line"/>
      <point x="520" y="-1000" type="line"/>
      <point x="520" y="2000" type="line"/>
    </contour>
  </outline>
</glyph>
<glyph name="heavyvertleft" format="2">
  <advance width="1200"/>
  <unicode hex="252B"/>
  <outline>
    <contour>
      <point x="840" y="2000" type="line"/>
      <point x="840" y="-1000" type="line"/>
      <point x="360" y="-1000" type="line"/>
      <point x="360" y="460" type="line"/>
      <point x="-10" y="460" type="line"/>
      <point x="-10" y="940" type="line"/>
      <point x="360" y="940" type="line"/>
      <point x="360" y="2000" type="line"/>
    </contour>
  </outline>
</glyph>
<glyph name="leftheavyrightuplight" format="2">
  <advance width="1200"/>
  <unicode hex="2535"/>
  <outline>
    <contour>
      <point x="680" y="2000" type="line"/>
      <point x="680" y="780" type="line"/>
      <point x="1210" y="780" type="line"/>
      <point x="1210" y="620" type="line"/>
      <point x="680" y="620" type="line"/>
      <point x="680" y="460" type="line"/>
      <point x="-10" y="460" type="line"/>
      <point x="-10" y="940" type="line"/>
      <point x="520" y="940" type="line"/>
      <point x="520" y="2000" type="line"/>
    </contour>
  </outline>
</glyph>
<glyph name="upheavyhorzlight" format="2">
  <advance width="1200"/>
  <unicode hex="2538"/>
  <outline>
    <contour>
      <point x="840" y="2000" type="line"/>
      <point x="840" y="780" type="line"/>
      <point x="1210" y="780" type="line"/>
      <point x="1210" y="620" type="line"/>
      <point x="-10" y="620" type="line"/>
      <point x="-10" y="780" type="line"/>
      <point x="360" y="780" type="line"/>
      <point x="360" y="2000" type="line"/>
    </contour>
  </outline>
</glyph>
<glyph name="lightdbldashhorz" format="2">
  <advance width="1200"/>
  <unicode hex="254C"/>
  <outline>
    <contour>
      <point x="1120" y="780" type="line"/>
      <point x="1120" y="620" type="line"/>
      <point x="680" y="620" type="line"/>
      <point x="680" y="780" type="line"/>
    </contour>
    <contour>
      <point x="520" y="780" type="line"/>
      <point x="520" y="620" type="line"/>
      <point x="80" y="620" type="line"/>
      <point x="80" y="780" type="line"/>
    </contour>
  </outline>
</glyph>
<glyph name="heavydbldashhorz" format="2">
  <advance width="1200"/>
  <unicode hex="254D"/>
  <outline>
    <contour>
      <point x="1120" y="940" type="line"/>
      <point x="1120" y="460" type="line"/>
      <point x="680" y="460" type="line"/>
      <point x="680" y="940" type="line"/>
    </contour>
    <contour>
      <point x="520" y="940" type="line"/>
      <point x="520" y="460" type="line"/>
      <point x="80" y="460" type="line"/>
      <point x="80" y="940" type="line"/>
    </contour>
  </outline>
</glyph>
<glyph name="heavydbldashvert" format="2">
  <advance width="1200"/>
  <unicode hex="254F"/>
  <outline>
    <contour>
      <point x="840" y="600" type="line"/>
      <point x="840" y="-360" type="line"/>
      <point x="360" y="-360" type="line"/>
      <point x="360" y="600" type="line"/>
    </contour>
    <contour>
      <point x="840" y="2040" type="line"/>
      <point x="840" y="1080" type="line"/>
      <point x="360" y="1080" type="line"/>
      <point x="360" y="2040" type="line"/>
    </contour>
  </outline>
</glyph>
<glyph name="uni2E3A" format="2">
  <advance width="1200"/>
  <unicode hex="2E3A"/>
  <outline>
    <contour>
      <point x="1200" y="552" type="line"/>
      <point x="0" y="552" type="line"/>
      <point x="0" y="792" type="line"/>
      <point x="1200" y="792" type="line"/>
    </contour>
  </outline>
</glyph>
<glyph name=".notdef" format="2">
  <advance width="1200"/>
  <outline>
    <contour>
      <point x="980" y="1482" type="line"/>
      <point x="980" y="1592" type="line"/>
      <point x="220" y="1592" type="line"/>
      <point x="220" y="1504" type="line"/>
      <point x="80" y="1359" type="line"/>
      <point x="80" y="1732" type="line"/>
      <point x="1120" y="1732" type="line"/>
      <point x="1120" y="1271" type="line"/>
    </contour>
    <contour>
      <point x="80" y="150" type="line"/>
      <point x="80" y="750" type="line"/>
      <point x="220" y="750" type="line"/>
      <point x="220" y="290" type="line"/>
      <point x="300" y="290" type="line"/>
      <point x="300" y="150" type="line"/>
    </contour>
    <contour>
      <point x="980" y="584" type="line"/>
      <point x="1120" y="730" type="line"/>
      <point x="1120" y="150" type="line"/>
      <point x="900" y="150" type="line"/>
      <point x="900" y="290" type="line"/>
      <point x="980" y="290" type="line"/>
    </contour>
    <contour>
      <point x="302" y="1403" type="line" name=".hr01"/>
      <point x="898" y="1403" type="line"/>
      <point x="1171" y="992" type="line"/>
      <point x="720" y="522" type="line" name=".hr02"/>
      <point x="720" y="355" type="line"/>
      <point x="476" y="355" type="line"/>
      <point x="476" y="591" type="line"/>
      <point x="887" y="1015" type="line"/>
      <point x="776" y="1179" type="line" name=".hr03"/>
      <point x="397" y="1179" type="line"/>
      <point x="153" y="928" type="line"/>
      <point x="29" y="1119" type="line"/>
    </contour>
    <contour>
      <point x="457" y="-72" type="line" name=".hr04"/>
      <point x="457" y="191" type="line"/>
      <point x="743" y="191" type="line"/>
      <point x="743" y="-72" type="line"/>
    </contour>
  </outline>
</glyph>
<glyph name="ampersand_ampersand.liga" format="2">
  <advance width="1200"/>
  <outline>
    <contour>
      <point x="-682" y="1473" type="line"/>
      <point x="-207" y="1473" type="line"/>
      <point x="-77" y="1284" type="line"/>
      <point x="-77" y="1158" type="line"/>
      <point x="-393" y="829" type="line"/>
      <point x="-172" y="498" type="line" name=".hr01"/>
      <point x="173" y="855" type="line"/>
      <point x="-12" y="1128" type="line"/>
      <point x="-12" y="1279" type="line"/>
      <point x="173" y="1473" type="line"/>
      <point x="648" y="1473" type="line"/>
      <point x="778" y="1284" type="line"/>
      <point x="778" y="1158" type="line"/>
      <point x="462" y="829" type="line"/>
      <point x="696" y="478" type="line"/>
      <point x="745" y="530" type="line"/>
      <point x="708" y="530" type="line"/>
      <point x="708" y="754" type="line"/>
      <point x="1028" y="754" type="line"/>
      <point x="1028" y="496" type="line"/>
      <point x="824" y="287" type="line"/>
      <point x="1022" y="0" type="line"/>
      <point x="751" y="0" type="line"/>
      <point x="665" y="125" type="line"/>
      <point x="547" y="0" type="line"/>
      <point x="-26" y="0" type="line"/>
      <point x="-142" y="172" type="line"/>
      <point x="-308" y="0" type="line"/>
      <point x="-881" y="0" type="line"/>
      <point x="-1027" y="215" type="line"/>
      <point x="-1027" y="498" type="line"/>
      <point x="-682" y="855" type="line"/>
      <point x="-867" y="1128" type="line"/>
      <point x="-867" y="1279" type="line"/>
    </contour>
    <contour>
      <point x="-640" y="1191" type="line"/>
      <point x="-523" y="1020" type="line"/>
      <point x="-313" y="1234" type="line"/>
      <point x="-322" y="1249" type="line"/>
      <point x="-585" y="1249" type="line"/>
    </contour>
    <contour>
      <point x="215" y="1191" type="line"/>
      <point x="332" y="1020" type="line"/>
      <point x="542" y="1234" type="line"/>
      <point x="533" y="1249" type="line"/>
      <point x="270" y="1249" type="line"/>
    </contour>
    <contour>
      <point x="-787" y="260" type="line"/>
      <point x="-763" y="224" type="line" name=".hr02"/>
      <point x="-402" y="224" type="line"/>
      <point x="-317" y="312" type="line"/>
      <point x="-556" y="665" type="line"/>
      <point x="-787" y="423" type="line"/>
    </contour>
    <contour>
      <point x="92" y="224" type="line"/>
      <point x="453" y="224" type="line"/>
      <point x="538" y="312" type="line"/>
      <point x="299" y="665" type="line"/>
      <point x="3" y="358" type="line"/>
    </contour>
  </outline>
</glyph>
<glyph name="caron.salt" format="2">
  <advance width="1200"/>
  <outline>
    <contour>
      <point x="480" y="1734" type="line"/>
      <point x="700.49" y="1734" type="line"/>
      <point x="700.49" y="1450" type="line"/>
      <point x="552.49" y="1173" type="line"/>
      <point x="460" y="1173" type="line"/>
      <point x="480" y="1450" type="line"/>
    </contour>
  </outline>
</glyph>
<glyph name="dollar_greater.liga" format="2">
  <advance width="1200"/>
  <outline>
    <contour>
      <point x="-356" y="1347" type="line"/>
      <point x="292" y="1347" type="line"/>
      <point x="974" y="689" type="line"/>
      <point x="974" y="570" type="line"/>
      <point x="356" y="-27" type="line"/>
      <point x="204" y="135" type="line"/>
      <point x="713" y="630" type="line"/>
      <point x="200" y="1123" type="line"/>
      <point x="-684" y="1123" type="line"/>
      <point x="-720" y="1084" type="line"/>
      <point x="-720" y="856" type="line"/>
      <point x="-661" y="769" type="line"/>
      <point x="-160" y="769" type="line"/>
      <point x="0" y="529" type="line"/>
      <point x="0" y="169" type="line"/>
      <point x="-163" y="0" type="line" name=".hr01"/>
      <point x="-356" y="0" type="line"/>
      <point x="-356" y="-332" type="line"/>
      <point x="-600" y="-332" type="line"/>
      <point x="-600" y="0" type="line"/>
      <point x="-854" y="0" type="line"/>
      <point x="-972" y="167" type="line"/>
      <point x="-816" y="330" type="line"/>
      <point x="-738" y="224" type="line"/>
      <point x="-263" y="224" type="line"/>
      <point x="-240" y="244" type="line"/>
      <point x="-240" y="488" type="line"/>
      <point x="-281" y="545" type="line"/>
      <point x="-781" y="545" type="line"/>
      <point x="-960" y="811" type="line"/>
      <point x="-960" y="1157" type="line"/>
      <point x="-777" y="1347" type="line"/>
      <point x="-600" y="1347" type="line"/>
      <point x="-600" y="1677" type="line"/>
      <point x="-356" y="1677" type="line"/>
    </contour>
  </outline>
</glyph>
<glyph name="equal_equal_equal.liga" format="2">
  <advance width="1200"/>
  <outline>
    <contour>
      <point x="910" y="678" type="line"/>
      <point x="910" y="438" type="line"/>
      <point x="-2110" y="438" type="line"/>
      <point x="-2110" y="678" type="line"/>
    </contour>
    <contour>
      <point x="910" y="310" type="line"/>
      <point x="910" y="70" type="line"/>
      <point x="-2110" y="70" type="line"/>
      <point x="-2110" y="310" type="line"/>
    </contour>
    <contour>
      <point x="910" y="1046" type="line"/>
      <point x="910" y="806" type="line"/>
      <point x="-2110" y="806" type="line"/>
      <point x="-2110" y="1046" type="line"/>
    </contour>
  </outline>
</glyph>
<glyph name="grave.case" format="2">
  <advance width="1200"/>
  <anchor x="619" y="2050" name="_top"/>
  <anchor x="619" y="2460" name="_bottom"/>
  <outline>
    <contour>
      <point x="787" y="2050" type="line"/>
      <point x="329" y="2271" type="line"/>
      <point x="457" y="2458" type="line"/>
      <point x="871" y="2187" type="line"/>
    </contour>
  </outline>
</glyph>
<glyph name="greater_equal.liga" format="2">
  <advance width="1200"/>
  <outline>
    <component base="greater" xOffset="-716" yOffset="163"/>
    <contour>
      <point x="405" y="683" type="line"/>
      <point x="572" y="510" type="line"/>
      <point x="-74" y="-113" type="line"/>
      <point x="-240" y="60" type="line"/>
    </contour>
  </outline>
</glyph>
<glyph name="hyphen_end.seq" format="2">
  <advance width="1200"/>
  <outline>
    <contour>
      <point x="941" y="506" type="line"/>
      <point x="941" y="746" type="line"/>
      <point x="-20" y="746" type="line"/>
      <point x="-20" y="506" type="line"/>
    </contour>
  </outline>
</glyph>
<glyph name="hyphen_middle.seq" format="2">
  <advance width="1200"/>
  <outline>
    <contour>
      <point x="-20" y="506" type="line"/>
      <point x="-20" y="746" type="line"/>
      <point x="1220" y="746" type="line"/>
      <point x="1220" y="506" type="line"/>
    </contour>
  </outline>
</glyph>
<glyph name="hyphen_start.seq" format="2">
  <advance width="1200"/>
  <outline>
    <contour>
      <point x="259" y="506" type="line"/>
      <point x="1220" y="506" type="line"/>
      <point x="1220" y="746" type="line"/>
      <point x="259" y="746" type="line"/>
    </contour>
  </outline>
</glyph>
<glyph name="less_dollar.liga" format="2">
  <advance width="1200"/>
  <outline>
    <contour>
      <point x="417" y="0" type="line"/>
      <point x="-345" y="0" type="line"/>
      <point x="-977" y="614" type="line"/>
      <point x="-977" y="733" type="line"/>
      <point x="-363" y="1327" type="line"/>
      <point x="-206" y="1164" type="line"/>
      <point x="-716" y="674" type="line"/>
      <point x="-252" y="224" type="line"/>
      <point x="754" y="224" type="line"/>
      <point x="777" y="243" type="line"/>
      <point x="777" y="488" type="line"/>
      <point x="736" y="545" type="line"/>
      <point x="236" y="545" type="line"/>
      <point x="57" y="811" type="line"/>
      <point x="57" y="1156" type="line"/>
      <point x="240" y="1346" type="line"/>
      <point x="417" y="1346" type="line"/>
      <point x="417" y="1677" type="line"/>
      <point x="661" y="1677" type="line"/>
      <point x="661" y="1346" type="line"/>
      <point x="839" y="1346" type="line"/>
      <point x="974" y="1138" type="line"/>
      <point x="815" y="981" type="line"/>
      <point x="719" y="1122" type="line"/>
      <point x="333" y="1122" type="line"/>
      <point x="297" y="1084" type="line"/>
      <point x="297" y="856" type="line"/>
      <point x="356" y="769" type="line"/>
      <point x="857" y="769" type="line"/>
      <point x="1017" y="529" type="line"/>
      <point x="1017" y="169" type="line"/>
      <point x="854" y="0" type="line"/>
      <point x="661" y="0" type="line"/>
      <point x="661" y="-332" type="line"/>
      <point x="417" y="-332" type="line"/>
    </contour>
  </outline>
</glyph>
<glyph name="less_dollar_greater.liga" format="2">
  <advance width="1200"/>
  <outline>
    <contour>
      <point x="-867" y="1391" type="line" name=".hr02"/>
      <point x="-650" y="1391" type="line"/>
      <point x="-650" y="1537" type="line"/>
      <point x="-486" y="1537" type="line"/>
      <point x="-486" y="1391" type="line"/>
      <point x="162" y="1391" type="line"/>
      <point x="844" y="733" type="line"/>
      <point x="844" y="614" type="line"/>
      <point x="226" y="17" type="line"/>
      <point x="74" y="179" type="line"/>
      <point x="583" y="674" type="line"/>
      <point x="70" y="1167" type="line"/>
      <point x="-486" y="1167" type="line"/>
      <point x="-486" y="809" type="line"/>
      <point x="-250" y="809" type="line"/>
      <point x="-90" y="569" type="line"/>
      <point x="-90" y="169" type="line"/>
      <point x="-253" y="0" type="line" name=".hr01"/>
      <point x="-486" y="0" type="line"/>
      <point x="-486" y="-144" type="line"/>
      <point x="-650" y="-144" type="line"/>
      <point x="-650" y="0" type="line"/>
      <point x="-1412" y="0" type="line"/>
      <point x="-2044" y="614" type="line"/>
      <point x="-2044" y="733" type="line"/>
      <point x="-1430" y="1327" type="line"/>
      <point x="-1273" y="1164" type="line"/>
      <point x="-1783" y="674" type="line"/>
      <point x="-1319" y="224" type="line"/>
      <point x="-650" y="224" type="line"/>
      <point x="-650" y="585" type="line"/>
      <point x="-871" y="585" type="line"/>
      <point x="-1050" y="851" type="line"/>
      <point x="-1050" y="1201" type="line"/>
    </contour>
    <contour>
      <point x="-751" y="809" type="line"/>
      <point x="-650" y="809" type="line"/>
      <point x="-650" y="1167" type="line"/>
      <point x="-774" y="1167" type="line"/>
      <point x="-810" y="1128" type="line"/>
      <point x="-810" y="896" type="line"/>
    </contour>
    <contour>
      <point x="-486" y="224" type="line" name=".hr03"/>
      <point x="-353" y="224" type="line"/>
      <point x="-330" y="243" type="line"/>
      <point x="-330" y="528" type="line"/>
      <point x="-371" y="585" type="line"/>
      <point x="-486" y="585" type="line"/>
    </contour>
  </outline>
</glyph>
<glyph name="less_equal_end.seq" format="2">
  <advance width="1200"/>
  <outline>
    <component base="equal_end.seq" xScale="0.5633" xOffset="-10"/>
    <contour>
      <point x="229" y="558" type="line"/>
      <point x="837" y="-33" type="line"/>
      <point x="994" y="129" type="line"/>
      <point x="552" y="558" type="line"/>
    </contour>
    <contour>
      <point x="226" y="686" type="line"/>
      <point x="549" y="686" type="line"/>
      <point x="994" y="1114" type="line"/>
      <point x="837" y="1277" type="line"/>
    </contour>
  </outline>
</glyph>
<glyph name="less_exclam_hyphen_hyphen.liga" format="2">
  <advance width="1200"/>
  <outline>
    <contour>
      <point x="-2257" y="221" type="line"/>
      <point x="-2257" y="-42" type="line"/>
      <point x="-2543" y="-42" type="line"/>
      <point x="-2543" y="221" type="line"/>
    </contour>
    <contour>
      <point x="-2520" y="385" type="line" name=".hr01"/>
      <point x="-2520" y="1433" type="line"/>
      <point x="-2276" y="1433" type="line"/>
      <point x="-2276" y="385" type="line"/>
    </contour>
    <contour>
      <point x="-3021" y="1299" type="line"/>
      <point x="-2829" y="1138" type="line"/>
      <point x="-3186" y="744" type="line"/>
      <point x="-2621" y="744" type="line"/>
      <point x="-2621" y="508" type="line"/>
      <point x="-3187" y="508" type="line"/>
      <point x="-2829" y="114" type="line"/>
      <point x="-3021" y="-47" type="line"/>
      <point x="-3621" y="626" type="line"/>
    </contour>
    <contour>
      <point x="-2166" y="508" type="line"/>
      <point x="-2166" y="744" type="line"/>
      <point x="1001" y="744" type="line"/>
      <point x="1001" y="508" type="line"/>
    </contour>
  </outline>
</glyph>
<glyph name="less_slash.liga" format="2">
  <advance width="1200"/>
  <outline>
    <contour>
      <point x="-233" y="1245" type="line"/>
      <point x="-115" y="1059" type="line"/>
      <point x="-813" y="625" type="line"/>
      <point x="-3" y="118" type="line"/>
      <point x="757" y="1682" type="line"/>
      <point x="948" y="1585" type="line"/>
      <point x="7" y="-347" type="line"/>
      <point x="-188" y="-262" type="line"/>
      <point x="-99" y="-79" type="line"/>
      <point x="-1063" y="521" type="line"/>
      <point x="-1063" y="733" type="line"/>
    </contour>
  </outline>
</glyph>
<glyph name="less_slash_greater.liga" format="2">
  <advance width="1200"/>
  <outline>
    <contour>
      <point x="-1233" y="1245" type="line"/>
      <point x="-1115" y="1059" type="line"/>
      <point x="-1813" y="625" type="line"/>
      <point x="-1003" y="118" type="line"/>
      <point x="-243" y="1682" type="line"/>
      <point x="-52" y="1585" type="line"/>
      <point x="-159" y="1367" type="line"/>
      <point x="866" y="733" type="line"/>
      <point x="866" y="521" type="line"/>
      <point x="50" y="10" type="line"/>
      <point x="-86" y="186" type="line"/>
      <point x="616" y="625" type="line"/>
      <point x="-255" y="1170" type="line"/>
      <point x="-993" y="-347" type="line"/>
      <point x="-1188" y="-262" type="line"/>
      <point x="-1099" y="-79" type="line"/>
      <point x="-2063" y="521" type="line"/>
      <point x="-2063" y="733" type="line"/>
    </contour>
  </outline>
</glyph>
<glyph name="numbersign_end.seq" format="2">
  <advance width="1200"/>
  <outline>
    <contour>
      <point x="453" y="560" type="line"/>
      <point x="668" y="560" type="line"/>
      <point x="731" y="913" type="line"/>
      <point x="519" y="913" type="line"/>
    </contour>
    <contour>
      <point x="1155" y="1138" type="line"/>
      <point x="1155" y="913" type="line"/>
      <point x="961" y="913" type="line"/>
      <point x="895" y="560" type="line"/>
      <point x="1049" y="560" type="line"/>
      <point x="1049" y="335" type="line" name=".hr01"/>
      <point x="855" y="335" type="line"/>
      <point x="790" y="0" type="line" name=".hr02"/>
      <point x="565" y="0" type="line"/>
      <point x="624" y="335" type="line" name=".hr03"/>
      <point x="413" y="335" type="line"/>
      <point x="353" y="0" type="line" name=".hr04"/>
      <point x="124" y="0" type="line"/>
      <point x="187" y="335" type="line" name=".hr05"/>
      <point x="0" y="335" type="line"/>
      <point x="0" y="560" type="line"/>
      <point x="228" y="560" type="line"/>
      <point x="293" y="913" type="line"/>
      <point x="0" y="913" type="line"/>
      <point x="0" y="1138" type="line"/>
      <point x="334" y="1138" type="line"/>
      <point x="397" y="1473" type="line" name=".hr06"/>
      <point x="623" y="1473" type="line"/>
      <point x="559" y="1138" type="line" name=".hr07"/>
      <point x="776" y="1138" type="line"/>
      <point x="836" y="1473" type="line" name=".hr08"/>
      <point x="1065" y="1473" type="line"/>
      <point x="1001" y="1138" type="line" name=".hr09"/>
    </contour>
  </outline>
</glyph>
<glyph name="numbersign_middle.seq" format="2">
  <advance width="1200"/>
  <outline>
    <contour>
      <point x="453" y="560" type="line"/>
      <point x="668" y="560" type="line"/>
      <point x="731" y="913" type="line"/>
      <point x="519" y="913" type="line"/>
    </contour>
    <contour>
      <point x="1200" y="1138" type="line"/>
      <point x="1200" y="913" type="line"/>
      <point x="961" y="913" type="line"/>
      <point x="895" y="560" type="line"/>
      <point x="1200" y="560" type="line"/>
      <point x="1200" y="335" type="line" name=".hr01"/>
      <point x="855" y="335" type="line"/>
      <point x="790" y="0" type="line" name=".hr02"/>
      <point x="565" y="0" type="line"/>
      <point x="624" y="335" type="line" name=".hr03"/>
      <point x="413" y="335" type="line"/>
      <point x="353" y="0" type="line" name=".hr04"/>
      <point x="124" y="0" type="line"/>
      <point x="187" y="335" type="line" name=".hr05"/>
      <point x="0" y="335" type="line"/>
      <point x="0" y="560" type="line"/>
      <point x="228" y="560" type="line"/>
      <point x="293" y="913" type="line"/>
      <point x="0" y="913" type="line"/>
      <point x="0" y="1138" type="line"/>
      <point x="334" y="1138" type="line"/>
      <point x="397" y="1473" type="line" name=".hr06"/>
      <point x="623" y="1473" type="line"/>
      <point x="559" y="1138" type="line" name=".hr07"/>
      <point x="776" y="1138" type="line"/>
      <point x="836" y="1473" type="line" name=".hr08"/>
      <point x="1065" y="1473" type="line"/>
      <point x="1001" y="1138" type="line" name=".hr09"/>
    </contour>
  </outline>
</glyph>
<glyph name="numbersign_start.seq" format="2">
  <advance width="1200"/>
  <outline>
    <contour>
      <point x="453" y="560" type="line"/>
      <point x="668" y="560" type="line"/>
      <point x="731" y="913" type="line"/>
      <point x="519" y="913" type="line"/>
    </contour>
    <contour>
      <point x="1200" y="1138" type="line"/>
      <point x="1200" y="913" type="line"/>
      <point x="961" y="913" type="line"/>
      <point x="895" y="560" type="line"/>
      <point x="1200" y="560" type="line"/>
      <point x="1200" y="335" type="line" name=".hr01"/>
      <point x="855" y="335" type="line"/>
      <point x="790" y="0" type="line" name=".hr02"/>
      <point x="565" y="0" type="line"/>
      <point x="624" y="335" type="line" name=".hr03"/>
      <point x="413" y="335" type="line"/>
      <point x="353" y="0" type="line" name=".hr04"/>
      <point x="124" y="0" type="line"/>
      <point x="187" y="335" type="line" name=".hr05"/>
      <point x="34" y="335" type="line"/>
      <point x="34" y="560" type="line"/>
      <point x="228" y="560" type="line"/>
      <point x="293" y="913" type="line"/>
      <point x="140" y="913" type="line"/>
      <point x="140" y="1138" type="line"/>
      <point x="334" y="1138" type="line"/>
      <point x="397" y="1473" type="line" name=".hr06"/>
      <point x="623" y="1473" type="line"/>
      <point x="559" y="1138" type="line" name=".hr07"/>
      <point x="776" y="1138" type="line"/>
      <point x="836" y="1473" type="line" name=".hr08"/>
      <point x="1065" y="1473" type="line"/>
      <point x="1001" y="1138" type="line" name=".hr09"/>
    </contour>
  </outline>
</glyph>
<glyph name="percent_percent.liga" format="2">
  <advance width="1200"/>
  <outline>
    <contour>
      <point x="-320" y="1353" type="line"/>
      <point x="-80" y="1353" type="line"/>
      <point x="-80" y="1046" type="line"/>
      <point x="-880" y="223" type="line"/>
      <point x="-880" y="0" type="line"/>
      <point x="-1120" y="0" type="line"/>
      <point x="-1120" y="294" type="line"/>
      <point x="-320" y="1117" type="line"/>
    </contour>
    <contour>
      <point x="-986" y="1207" type="line"/>
      <point x="-819" y="1207" type="line"/>
      <point x="-700" y="1091" type="line"/>
      <point x="-700" y="922" type="line"/>
      <point x="-819" y="807" type="line"/>
      <point x="-986" y="807" type="line"/>
      <point x="-1100" y="922" type="line"/>
      <point x="-1100" y="1091" type="line"/>
    </contour>
    <contour>
      <point x="-92" y="875" type="line"/>
      <point x="75" y="875" type="line"/>
      <point x="194" y="759" type="line"/>
      <point x="194" y="590" type="line"/>
      <point x="75" y="475" type="line"/>
      <point x="-92" y="475" type="line"/>
      <point x="-206" y="590" type="line"/>
      <point x="-206" y="759" type="line"/>
    </contour>
    <contour>
      <point x="814" y="530" type="line"/>
      <point x="981" y="530" type="line"/>
      <point x="1100" y="414" type="line"/>
      <point x="1100" y="245" type="line"/>
      <point x="981" y="130" type="line"/>
      <point x="814" y="130" type="line"/>
      <point x="700" y="245" type="line"/>
      <point x="700" y="414" type="line"/>
    </contour>
    <contour>
      <point x="880" y="1353" type="line"/>
      <point x="1120" y="1353" type="line"/>
      <point x="1120" y="1046" type="line"/>
      <point x="320" y="223" type="line"/>
      <point x="320" y="0" type="line"/>
      <point x="80" y="0" type="line"/>
      <point x="80" y="294" type="line"/>
      <point x="880" y="1117" type="line"/>
    </contour>
  </outline>
</glyph>
<glyph name="plus_plus.liga" format="2">
  <advance width="1200"/>
  <outline>
    <contour>
      <point x="-652" y="1155" type="line"/>
      <point x="-428" y="1155" type="line"/>
      <point x="-428" y="784" type="line"/>
      <point x="428" y="784" type="line"/>
      <point x="428" y="1155" type="line"/>
      <point x="652" y="1155" type="line"/>
      <point x="652" y="784" type="line"/>
      <point x="1024" y="784" type="line"/>
      <point x="1024" y="560" type="line"/>
      <point x="652" y="560" type="line"/>
      <point x="652" y="190" type="line"/>
      <point x="428" y="190" type="line"/>
      <point x="428" y="560" type="line"/>
      <point x="-428" y="560" type="line"/>
      <point x="-428" y="190" type="line"/>
      <point x="-652" y="190" type="line"/>
      <point x="-652" y="560" type="line"/>
      <point x="-1024" y="560" type="line"/>
      <point x="-1024" y="784" type="line"/>
      <point x="-652" y="784" type="line"/>
    </contour>
  </outline>
</glyph>
<glyph name="plus_plus_plus.liga" format="2">
  <advance width="1200"/>
  <outline>
    <contour>
      <point x="-1852" y="1155" type="line"/>
      <point x="-1628" y="1155" type="line"/>
      <point x="-1628" y="784" type="line"/>
      <point x="-712" y="784" type="line"/>
      <point x="-712" y="1155" type="line"/>
      <point x="-488" y="1155" type="line"/>
      <point x="-488" y="784" type="line"/>
      <point x="428" y="784" type="line"/>
      <point x="428" y="1155" type="line"/>
      <point x="652" y="1155" type="line"/>
      <point x="652" y="784" type="line"/>
      <point x="1024" y="784" type="line"/>
      <point x="1024" y="560" type="line"/>
      <point x="652" y="560" type="line"/>
      <point x="652" y="190" type="line"/>
      <point x="428" y="190" type="line"/>
      <point x="428" y="560" type="line"/>
      <point x="-488" y="560" type="line"/>
      <point x="-488" y="190" type="line"/>
      <point x="-712" y="190" type="line"/>
      <point x="-712" y="560" type="line"/>
      <point x="-1628" y="560" type="line"/>
      <point x="-1628" y="190" type="line"/>
      <point x="-1852" y="190" type="line"/>
      <point x="-1852" y="560" type="line"/>
      <point x="-2224" y="560" type="line"/>
      <point x="-2224" y="784" type="line"/>
      <point x="-1852" y="784" type="line"/>
    </contour>
  </outline>
</glyph>
<glyph name="question_equal.liga" format="2">
  <advance width="1200"/>
  <outline>
    <component base="question" xOffset="-887" yOffset="-2"/>
    <contour>
      <point x="720" y="926" type="line"/>
      <point x="-65" y="926" type="line"/>
      <point x="-65" y="686" type="line"/>
      <point x="720" y="686" type="line"/>
    </contour>
    <contour>
      <point x="720" y="558" type="line"/>
      <point x="-410" y="558" type="line"/>
      <point x="-410" y="318" type="line"/>
      <point x="720" y="318" type="line"/>
    </contour>
  </outline>
</glyph>
<glyph name="slash_equal_end.seq" format="2">
  <advance width="1200"/>
  <outline>
    <component base="slash"/>
    <contour>
      <point x="666" y="926" type="line"/>
      <point x="666" y="686" type="line"/>
      <point x="-24" y="686" type="line"/>
      <point x="-24" y="926" type="line"/>
    </contour>
    <contour>
      <point x="536" y="558" type="line"/>
      <point x="536" y="318" type="line"/>
      <point x="-24" y="318" type="line"/>
      <point x="-24" y="558" type="line"/>
    </contour>
  </outline>
</glyph>
<glyph name="slash_equal_start.seq" format="2">
  <advance width="1200"/>
  <outline>
    <component base="slash"/>
    <contour>
      <point x="1223" y="926" type="line"/>
      <point x="640" y="926" type="line"/>
      <point x="640" y="686" type="line"/>
      <point x="1223" y="686" type="line"/>
    </contour>
    <contour>
      <point x="1223" y="558" type="line"/>
      <point x="490" y="558" type="line"/>
      <point x="490" y="318" type="line"/>
      <point x="1223" y="318" type="line"/>
    </contour>
  </outline>
</glyph>
<glyph name="w_w_w.liga" format="2">
  <advance width="1200"/>
  <outline>
    <contour>
      <point x="164" y="0" type="line"/>
      <point x="-27" y="283" type="line"/>
      <point x="-300" y="0" type="line"/>
      <point x="-484" y="0" type="line"/>
      <point x="-587" y="157" type="line"/>
      <point x="-741" y="0" type="line"/>
      <point x="-920" y="0" type="line"/>
      <point x="-1109" y="279" type="line"/>
      <point x="-1380" y="0" type="line"/>
      <point x="-1564" y="0" type="line"/>
      <point x="-1667" y="157" type="line"/>
      <point x="-1821" y="0" type="line"/>
      <point x="-2000" y="0" type="line"/>
      <point x="-2280" y="414" type="line"/>
      <point x="-2280" y="1010" type="line"/>
      <point x="-2040" y="1010" type="line"/>
      <point x="-2040" y="458" type="line"/>
      <point x="-1905" y="257" type="line"/>
      <point x="-1896" y="257" type="line"/>
      <point x="-1800" y="343" type="line"/>
      <point x="-1800" y="1010" type="line"/>
      <point x="-1560" y="1010" type="line"/>
      <point x="-1560" y="396" type="line"/>
      <point x="-1464" y="257" type="line"/>
      <point x="-1458" y="257" type="line"/>
      <point x="-1299" y="406" type="line"/>
      <point x="-1299" y="1010" type="line"/>
      <point x="-1059" y="1010" type="line"/>
      <point x="-1059" y="603" type="line"/>
      <point x="-825" y="257" type="line"/>
      <point x="-816" y="257" type="line"/>
      <point x="-720" y="343" type="line"/>
      <point x="-720" y="1010" type="line"/>
      <point x="-480" y="1010" type="line"/>
      <point x="-480" y="396" type="line"/>
      <point x="-384" y="257" type="line"/>
      <point x="-378" y="257" type="line"/>
      <point x="-116" y="512" type="line"/>
      <point x="-116" y="1010" type="line"/>
      <point x="124" y="1010" type="line"/>
      <point x="124" y="458" type="line"/>
      <point x="259" y="257" type="line"/>
      <point x="268" y="257" type="line"/>
      <point x="364" y="343" type="line"/>
      <point x="364" y="1010" type="line"/>
      <point x="604" y="1010" type="line"/>
      <point x="604" y="396" type="line"/>
      <point x="700" y="257" type="line"/>
      <point x="706" y="257" type="line"/>
      <point x="844" y="384" type="line"/>
      <point x="844" y="1010" type="line"/>
      <point x="1084" y="1010" type="line"/>
      <point x="1084" y="311" type="line"/>
      <point x="784" y="0" type="line"/>
      <point x="600" y="0" type="line"/>
      <point x="497" y="157" type="line"/>
      <point x="343" y="0" type="line"/>
    </contour>
  </outline>
</glyph>
